<svg width="747.2108" height="570.00666" xmlns="http://www.w3.org/2000/svg" style="vector-effect: non-scaling-stroke;" stroke="null" data-name="Layer 1">

 <g stroke="null">
  <title stroke="null">Layer 1</title>
  <path stroke="null" id="svg_1" fill="#e6e6e6" d="m38.97097,47.82661a4.77608,4.77608 0 0 0 -4.78143,4.75948l-1.17461,510.43858a4.77609,4.77609 0 0 0 4.75948,4.78144l411.21267,0.94627a4.77609,4.77609 0 0 0 4.78143,-4.75948l1.17461,-510.43857a4.77608,4.77608 0 0 0 -4.75947,-4.78143l-411.21268,-0.94629z"/>
  <path stroke="null" id="svg_2" fill="#fff" d="m54.15592,63.12717a4.73948,4.77609 0 0 0 -4.74477,4.75948l-1.09588,479.90768a4.73946,4.77607 0 0 0 4.72298,4.78143l377.76384,0.876a4.73947,4.77608 0 0 0 4.74476,-4.75943l1.09588,-479.90768a4.73947,4.77608 0 0 0 -4.72298,-4.78143l-377.76383,-0.87605z"/>
  <path stroke="null" id="svg_3" fill="#e6e6e6" d="m384.31571,271.52194l-280.5027,-0.64549a7.1557,7.1557 0 1 1 0.03293,-14.31136l280.5027,0.64549a7.1557,7.1557 0 0 1 -0.03293,14.31136z"/>
  <path stroke="null" id="svg_4" fill="#e6e6e6" d="m387.03092,138.19333l-186.094,-0.42824c-2.62183,-0.006 -4.73992,-3.21467 -4.73083,-7.1666s2.14193,-7.15079 4.76376,-7.14476l186.094,0.42824c2.62214,0.006 4.73992,3.21467 4.73083,7.1666s-2.14163,7.15076 -4.76376,7.14476z"/>
  <path stroke="null" id="svg_5" fill="#e6e6e6" d="m386.93651,179.21919l-186.094,-0.42823c-2.62183,-0.006 -4.73992,-3.21468 -4.73083,-7.16661s2.14194,-7.15079 4.76377,-7.14475l186.094,0.42823c2.62214,0.006 4.73992,3.21468 4.73083,7.16661s-2.14163,7.15079 -4.76377,7.14475z"/>
  <path stroke="null" id="svg_6" fill="#e6e6e6" d="m384.20922,317.79533l-280.5027,-0.64548a7.1557,7.1557 0 0 1 0.03293,-14.31136l280.50271,0.64548a7.1557,7.1557 0 0 1 -0.03294,14.31136z"/>
  <path stroke="null" id="svg_7" fill="#e6e6e6" d="m384.10274,364.06875l-280.5027,-0.64549a7.1557,7.1557 0 1 1 0.03293,-14.31136l280.5027,0.64549a7.1557,7.1557 0 1 1 -0.03293,14.31136z"/>
  <path stroke="null" id="svg_8" fill="#e6e6e6" d="m383.99626,410.34215l-280.5027,-0.64548a7.1557,7.1557 0 1 1 0.03293,-14.31137l280.5027,0.64549a7.1557,7.1557 0 0 1 -0.03293,14.31136z"/>
  <path stroke="null" id="svg_9" fill="#e6e6e6" d="m383.88977,456.61556l-280.5027,-0.64549a7.1557,7.1557 0 0 1 0.03294,-14.31136l280.5027,0.64549a7.1557,7.1557 0 0 1 -0.03294,14.31136z"/>
  <path stroke="null" id="svg_10" fill="#e6e6e6" d="m383.78329,502.88896l-280.5027,-0.64548a7.1557,7.1557 0 1 1 0.03293,-14.31137l280.5027,0.64549a7.1557,7.1557 0 1 1 -0.03293,14.31136z"/>
  <circle stroke="null" id="svg_11" fill="#3f3d56" r="37.68669" cy="151.44683" cx="134.61891"/>
  <path stroke="null" id="svg_12" fill="#e6e6e6" d="m192.41198,271.08033"/>
  <path stroke="null" id="svg_13" fill="#6c63ff" d="m415.68452,143.35272l-0.00113,-89.16669a50.44769,50.44769 0 0 0 -100.86823,-2.21847l11.1029,0a39.39479,39.39479 0 0 1 39.30744,-37.86834c0.19183,0 0.38636,0.00162 0.57819,0.00433a39.41934,39.41934 0 0 1 38.783,40.00228l0,89.2935c0.00217,0.22759 0.00217,0.45464 0,0.6611a26.425,26.425 0 0 1 -26.38749,26.07428q-0.16255,0 -0.32513,-0.00163a26.43823,26.43823 0 0 1 -26.07157,-26.77656l0.06069,-88.56629a13.29569,13.29569 0 0 1 26.58636,-0.08724l0,67.63334a5.54887,5.54887 0 1 0 11.09775,0l-0.00109,-67.72116a24.39255,24.39255 0 0 0 -48.78022,0.084l-0.0606,88.58635a37.53446,37.53446 0 0 0 37.03439,37.94421c0.155,0.00217 0.3067,0.00271 0.46168,0.00271a37.54415,37.54415 0 0 0 37.48307,-37.05769c0.00215,-0.28936 0.00215,-0.57927 -0.00001,-0.82203z"/>
  <path stroke="null" id="svg_36" fill="#e6e6e6" d="m687.56476,358.99363"/>
  <text font-style="italic" transform="matrix(1.28024 0 0 1.5625 -35.4202 -171.554)" stroke="null" font-weight="bold" xml:space="preserve" text-anchor="start" font-family="Noto Sans JP" font-size="24" stroke-width="0" id="svg_39" y="328.99667" x="127.39459" fill="#000000">File Can not view</text>
 </g>
</svg>