<svg xmlns="http://www.w3.org/2000/svg" viewBox="0 0 500 500"><g id="freepik--background-complete--inject-18"><path d="M438.16,317.22,425,317.5l-6.66.11c-2.23.05-4.46,0-6.69.05h-.45v-.45L411.18,306v-.5h.51l13.24.06c4.41,0,8.82.11,13.24.16h.27V306c0,1.9-.09,3.78-.13,5.65Zm0,0-.15-5.66c0-1.86-.11-3.7-.13-5.53l.28.27c-4.42.05-8.83.16-13.24.16l-13.24.07.49-.5-.05,11.19-.44-.45c2.18,0,4.35,0,6.54.06l6.58.11Z" style="fill:#ebebeb"></path><path d="M423.38,331.33l-13.12.28-6.66.11c-2.23,0-4.46,0-6.7,0h-.44v-.45l-.06-11.19v-.5h.5l13.24.06c4.42,0,8.83.11,13.24.16h.28v.27c0,1.9-.09,3.78-.13,5.65Zm0,0-.14-5.66c0-1.86-.11-3.7-.13-5.53l.27.27c-4.41,0-8.82.16-13.24.16l-13.24.07.5-.5,0,11.19-.45-.45c2.19,0,4.36,0,6.55.06l6.58.11Z" style="fill:#ebebeb"></path><path d="M88.32,317.22l-13.12.28-6.66.11c-2.23.05-4.46,0-6.7.05H61.4v-.45L61.34,306v-.5h.5l13.24.06c4.42,0,8.83.11,13.24.16h.28V306c0,1.9-.09,3.78-.13,5.65Zm0,0-.14-5.66c0-1.86-.11-3.7-.13-5.53l.27.27c-4.41.05-8.82.16-13.24.16l-13.24.07.5-.5-.05,11.19-.45-.45c2.19,0,4.36,0,6.55.06l6.58.11Z" style="fill:#ebebeb"></path><path d="M73.55,331.33l-13.12.28-6.66.11c-2.23,0-4.47,0-6.7,0h-.44v-.45l-.06-11.19v-.5h.5l13.24.06c4.42,0,8.83.11,13.24.16h.28v.27c0,1.9-.09,3.78-.14,5.65Zm0,0-.14-5.66c0-1.86-.11-3.7-.13-5.53l.27.27c-4.41,0-8.82.16-13.24.16l-13.24.07.5-.5,0,11.19-.45-.45c2.18,0,4.36,0,6.55.06l6.58.11Z" style="fill:#ebebeb"></path><path d="M452.93,331.33l-13.13.28-6.66.11c-2.22,0-4.46,0-6.69,0H426v-.45L426,320.14v-.5h.5l13.24.06c4.41,0,8.82.11,13.24.16h.27v.27c0,1.9-.09,3.78-.13,5.65Zm0,0-.14-5.66c-.05-1.86-.12-3.7-.14-5.53l.28.27c-4.42,0-8.83.16-13.24.16l-13.24.07.5-.5-.06,11.19-.44-.45c2.18,0,4.36,0,6.54.06l6.58.11Z" style="fill:#ebebeb"></path><path d="M150.58,138.34l-13.13.28-6.66.11c-2.23.05-4.46,0-6.69.06h-.45v-.45l-.05-11.19v-.5h.51l13.24.07c4.41,0,8.82.11,13.24.16h.27v.27c0,1.9-.09,3.79-.13,5.66Zm0,0-.15-5.65c0-1.86-.11-3.71-.13-5.54l.28.28c-4.42,0-8.83.15-13.24.16l-13.24.06.5-.5-.06,11.19-.44-.44c2.18,0,4.35,0,6.54,0l6.58.11Z" style="fill:#ebebeb"></path><path d="M135.8,152.45l-13.12.28-6.66.11c-2.23,0-4.46,0-6.7.06h-.44v-.45l-.06-11.19v-.5h.5l13.24.07c4.42,0,8.83.11,13.24.16h.28v.27c0,1.9-.09,3.79-.13,5.66Zm0,0-.14-5.65c0-1.86-.11-3.71-.13-5.54l.27.28c-4.41.05-8.82.15-13.24.16l-13.24.06.5-.5,0,11.19-.45-.44c2.19,0,4.36,0,6.55.05l6.58.11Z" style="fill:#ebebeb"></path><path d="M165.35,152.45l-13.13.28-6.66.11c-2.22,0-4.46,0-6.69.06h-.45v-.45l0-11.19v-.5h.5l13.24.07c4.41,0,8.82.11,13.24.16h.27v.27c0,1.9-.08,3.79-.13,5.66Zm0,0-.14-5.65c-.05-1.86-.12-3.71-.13-5.54l.27.28c-4.42.05-8.83.15-13.24.16l-13.24.06.5-.5-.06,11.19-.44-.44c2.18,0,4.36,0,6.54.05l6.58.11Z" style="fill:#ebebeb"></path><path d="M307.3,216.72l-13.12.28-6.66.11c-2.23,0-4.47,0-6.7,0h-.44v-.45l-.06-11.19V205h.5l13.24.06c4.42,0,8.83.11,13.24.16h.28v.27c0,1.9-.09,3.78-.14,5.65Zm0,0-.14-5.66c0-1.86-.11-3.7-.13-5.53l.27.27c-4.41,0-8.82.16-13.24.16l-13.24.07.5-.5-.05,11.19-.45-.45c2.18,0,4.36,0,6.55.06l6.58.11Z" style="fill:#ebebeb"></path><path d="M436.62,65.37l-13.12.28-6.66.11c-2.23,0-4.46,0-6.7.06h-.44v-.45l-.06-11.19v-.5h.5l13.24.07c4.42,0,8.83.11,13.24.16h.28v.27c0,1.9-.09,3.79-.13,5.66Zm0,0-.14-5.65c0-1.86-.11-3.71-.13-5.54l.27.28c-4.41,0-8.82.15-13.24.16l-13.24.06.5-.5-.05,11.19-.45-.44c2.19,0,4.36,0,6.55,0l6.58.11Z" style="fill:#ebebeb"></path><path d="M451.4,79.48l-13.13.28-6.66.11c-2.23,0-4.46,0-6.69.06h-.45v-.45l-.05-11.19v-.5h.51l13.24.07c4.41,0,8.82.11,13.24.16h.27v.27c0,1.9-.09,3.79-.13,5.66Zm0,0-.15-5.65c0-1.86-.11-3.71-.13-5.54l.28.28c-4.42.05-8.83.15-13.24.16l-13.24.06.5-.5-.06,11.19-.44-.44c2.18,0,4.35,0,6.54,0l6.58.11Z" style="fill:#ebebeb"></path><path d="M73.55,65.38l-13.12.28-6.66.12c-2.23,0-4.47,0-6.7,0h-.44v-.45L46.57,54.2v-.51h.5l13.24.06c4.42,0,8.83.11,13.24.16h.28v.27c0,1.89-.09,3.78-.14,5.65Zm0,0-.14-5.65c0-1.86-.11-3.7-.13-5.53l.27.27c-4.41.05-8.82.16-13.24.16l-13.24.06.5-.49,0,11.18-.45-.44c2.18,0,4.36,0,6.55,0l6.58.12Z" style="fill:#ebebeb"></path><rect x="169.83" y="254.71" width="12.87" height="171.16" transform="translate(-189.99 453.12) rotate(-79.74)" style="fill:#dbdbdb"></rect><polygon points="103.31 320.55 91.37 328.82 93.2 318.72 103.31 320.55" style="fill:#c7c7c7"></polygon><polygon points="122.47 324.01 107.52 334.38 97.28 332.53 112.23 322.16 122.47 324.01" style="fill:#c7c7c7"></polygon><polygon points="141.63 327.48 126.67 337.85 116.43 336 131.4 325.63 141.63 327.48" style="fill:#c7c7c7"></polygon><polygon points="160.79 330.95 145.84 341.32 135.6 339.47 150.55 329.1 160.79 330.95" style="fill:#c7c7c7"></polygon><polygon points="179.95 334.42 164.99 344.79 154.75 342.94 169.71 332.57 179.95 334.42" style="fill:#c7c7c7"></polygon><polygon points="199.11 337.89 184.15 348.26 173.92 346.41 188.87 336.04 199.11 337.89" style="fill:#c7c7c7"></polygon><polygon points="218.27 341.36 203.31 351.73 193.08 349.88 208.03 339.5 218.27 341.36" style="fill:#c7c7c7"></polygon><polygon points="237.42 344.83 222.47 355.2 212.24 353.35 227.19 342.98 237.42 344.83" style="fill:#c7c7c7"></polygon><polygon points="256.59 348.3 241.63 358.67 231.4 356.81 246.35 346.44 256.59 348.3" style="fill:#c7c7c7"></polygon><polygon points="260.92 353.09 259.33 361.87 250.55 360.28 260.92 353.09" style="fill:#c7c7c7"></polygon><rect x="90.69" y="333.86" width="171.16" height="12.87" transform="translate(-36.99 21.88) rotate(-6.43)" style="fill:#dbdbdb"></rect><path d="M94.64,349.08a.69.69,0,0,1,0,.32.78.78,0,0,1-.16.28.72.72,0,0,1-.25.21.77.77,0,0,1-.3.11.55.55,0,0,1-.41-.13.61.61,0,0,1-.19-.39.71.71,0,0,1,0-.32.78.78,0,0,1,.16-.28.91.91,0,0,1,.24-.2.71.71,0,0,1,.3-.1.53.53,0,0,1,.41.11A.62.62,0,0,1,94.64,349.08Z" style="fill:#c7c7c7"></path><path d="M98.66,346.46l1.6-.18a2.19,2.19,0,0,1,.78.05,1.62,1.62,0,0,1,.58.31,1.53,1.53,0,0,1,.37.52,1.85,1.85,0,0,1,.18.67,3,3,0,0,1-.07,1.12,2.72,2.72,0,0,1-.47.93,2.5,2.5,0,0,1-.78.66,2.77,2.77,0,0,1-1,.33l-1.61.18Zm1.24,3.48a1.3,1.3,0,0,0,.56-.2,1.34,1.34,0,0,0,.4-.42,1.59,1.59,0,0,0,.23-.57,2.35,2.35,0,0,0,0-.65,1.15,1.15,0,0,0-.29-.69.77.77,0,0,0-.66-.2l-.57.07L99.34,350Z" style="fill:#c7c7c7"></path><path d="M104.46,350.38a1.63,1.63,0,0,1-.74-.07,1.58,1.58,0,0,1-.58-.36,1.87,1.87,0,0,1-.39-.56,2.36,2.36,0,0,1-.19-.69,2.22,2.22,0,0,1,0-.68,3.89,3.89,0,0,1,.21-.66,2.78,2.78,0,0,1,.37-.59,2.9,2.9,0,0,1,.49-.5,3.37,3.37,0,0,1,.61-.36,2.55,2.55,0,0,1,.67-.18,1.63,1.63,0,0,1,.74.08,1.65,1.65,0,0,1,.57.35,1.92,1.92,0,0,1,.39.57,2.36,2.36,0,0,1,.19.69,2.29,2.29,0,0,1-.11,1,2.81,2.81,0,0,1-.49.92,2.76,2.76,0,0,1-.78.7A2.3,2.3,0,0,1,104.46,350.38Zm.1-.94a1.2,1.2,0,0,0,.57-.22,1.67,1.67,0,0,0,.39-.45,2.32,2.32,0,0,0,.22-.57,2.05,2.05,0,0,0,0-.6,1.51,1.51,0,0,0-.1-.38,1.05,1.05,0,0,0-.18-.31.7.7,0,0,0-.29-.19.68.68,0,0,0-.38,0,1,1,0,0,0-.56.22,1.4,1.4,0,0,0-.4.44,1.78,1.78,0,0,0-.22.57,2,2,0,0,0,0,.59,1.59,1.59,0,0,0,.09.39,1.08,1.08,0,0,0,.19.31.88.88,0,0,0,.29.2A.91.91,0,0,0,104.56,349.44Z" style="fill:#c7c7c7"></path><path d="M109.11,345.29l.81-.1,1.64,2.48.25-2.69,1-.12-.45,4.59-.82.09L110,347.13l-.25,2.62-1,.12Z" style="fill:#c7c7c7"></path><path d="M115.12,349.18a1.63,1.63,0,0,1-.74-.07,1.5,1.5,0,0,1-.58-.36,1.87,1.87,0,0,1-.39-.56,2.36,2.36,0,0,1-.19-.69,2.21,2.21,0,0,1,0-.68,3.63,3.63,0,0,1,.21-.66,2.78,2.78,0,0,1,.37-.59,2.58,2.58,0,0,1,.49-.5,3.37,3.37,0,0,1,.61-.36,2.55,2.55,0,0,1,.67-.18,1.63,1.63,0,0,1,.74.08,1.65,1.65,0,0,1,.57.35,1.92,1.92,0,0,1,.39.57,2.28,2.28,0,0,1,.08,1.69,2.91,2.91,0,0,1-.49.92,3.06,3.06,0,0,1-.78.7A2.3,2.3,0,0,1,115.12,349.18Zm.1-.94a1.11,1.11,0,0,0,.57-.23,1.41,1.41,0,0,0,.39-.45,2,2,0,0,0,.22-.57,2,2,0,0,0,0-.59,1.51,1.51,0,0,0-.1-.38,1.05,1.05,0,0,0-.18-.31.84.84,0,0,0-.29-.2.93.93,0,0,0-.38,0,1.28,1.28,0,0,0-.57.22,1.67,1.67,0,0,0-.39.45,1.78,1.78,0,0,0-.22.57,2,2,0,0,0,0,.59,1.59,1.59,0,0,0,.09.39,1.08,1.08,0,0,0,.19.31.73.73,0,0,0,.29.19A.77.77,0,0,0,115.22,348.24Z" style="fill:#c7c7c7"></path><path d="M118.77,345.12l-1.28.14.09-.93,3.58-.4-.08.93-1.28.14-.36,3.66-1,.11Z" style="fill:#c7c7c7"></path><path d="M124.43,348.13a1.41,1.41,0,0,1-.72-.08,1.69,1.69,0,0,1-.58-.37,1.92,1.92,0,0,1-.39-.57,2.42,2.42,0,0,1-.19-.7,2.22,2.22,0,0,1,0-.63,2.94,2.94,0,0,1,.19-.64,2.7,2.7,0,0,1,.35-.59,2.9,2.9,0,0,1,.48-.51,3.42,3.42,0,0,1,.61-.37,2.39,2.39,0,0,1,.72-.19,1.68,1.68,0,0,1,1,.16,1.29,1.29,0,0,1,.59.65l-.85.66a.67.67,0,0,0-.14-.28.69.69,0,0,0-.22-.17.73.73,0,0,0-.25-.08h-.27a1.09,1.09,0,0,0-.57.22,1.49,1.49,0,0,0-.39.44,2,2,0,0,0-.21.57,1.59,1.59,0,0,0,0,.57,1.37,1.37,0,0,0,.09.4,1.1,1.1,0,0,0,.2.31.72.72,0,0,0,.29.2.74.74,0,0,0,.37.05,1,1,0,0,0,.27-.07,1.16,1.16,0,0,0,.27-.14,1.27,1.27,0,0,0,.25-.22,1.08,1.08,0,0,0,.19-.31l.8.41a1.76,1.76,0,0,1-.33.49,2.17,2.17,0,0,1-.48.38,2.73,2.73,0,0,1-.54.27A2.3,2.3,0,0,1,124.43,348.13Z" style="fill:#c7c7c7"></path><path d="M126.75,347.83l.45-4.58,1.92-.22a1.12,1.12,0,0,1,.49.05,1.05,1.05,0,0,1,.37.25,1.31,1.31,0,0,1,.27.38,1.43,1.43,0,0,1,.13.46,1.78,1.78,0,0,1,0,.46,2.51,2.51,0,0,1-.16.46,2.19,2.19,0,0,1-.26.41,1.65,1.65,0,0,1-.37.33l.77,1.6-1.17.13-.66-1.39-.58.07-.14,1.47Zm2.13-2.61a.38.38,0,0,0,.18-.09.45.45,0,0,0,.15-.18.67.67,0,0,0,.1-.26,1,1,0,0,0,0-.3.58.58,0,0,0-.12-.32.26.26,0,0,0-.23-.1l-.83.09-.12,1.25Z" style="fill:#c7c7c7"></path><path d="M132.7,347.2a1.63,1.63,0,0,1-.74-.07,1.5,1.5,0,0,1-.58-.36,2,2,0,0,1-.39-.56,2.36,2.36,0,0,1-.19-.69,2.21,2.21,0,0,1,0-.68,3.63,3.63,0,0,1,.21-.66,2.78,2.78,0,0,1,.37-.59,2.58,2.58,0,0,1,.49-.5,2.88,2.88,0,0,1,.61-.36,2.55,2.55,0,0,1,.67-.18,1.5,1.5,0,0,1,.74.08,1.65,1.65,0,0,1,.57.35,1.92,1.92,0,0,1,.39.57,2.22,2.22,0,0,1,.19.68,2.32,2.32,0,0,1-.11,1,2.91,2.91,0,0,1-.49.92,3.06,3.06,0,0,1-.78.7A2.3,2.3,0,0,1,132.7,347.2Zm.1-.94a1.11,1.11,0,0,0,.57-.23,1.41,1.41,0,0,0,.39-.45A2,2,0,0,0,134,345a2,2,0,0,0,0-.59,1.41,1.41,0,0,0-.1-.38,1.05,1.05,0,0,0-.18-.31.84.84,0,0,0-.29-.2.93.93,0,0,0-.38,0,1.28,1.28,0,0,0-.57.22,1.53,1.53,0,0,0-.39.45,1.82,1.82,0,0,0-.22.56,2.05,2.05,0,0,0,0,.6,1.51,1.51,0,0,0,.09.38,1.13,1.13,0,0,0,.19.32.73.73,0,0,0,.29.19A.77.77,0,0,0,132.8,346.26Z" style="fill:#c7c7c7"></path><path d="M137,346.73a3.28,3.28,0,0,1-.94,0,2.36,2.36,0,0,1-.83-.32l.54-1a.49.49,0,0,0,.14.11,1.4,1.4,0,0,0,.3.14,2.1,2.1,0,0,0,.42.12,1.55,1.55,0,0,0,.48,0,.63.63,0,0,0,.42-.16.39.39,0,0,0,.09-.3.26.26,0,0,0-.09-.17.68.68,0,0,0-.21-.11A1.71,1.71,0,0,0,137,345l-.36-.08a1.73,1.73,0,0,1-.72-.31.79.79,0,0,1-.29-.57,1.53,1.53,0,0,1,.08-.74,1.64,1.64,0,0,1,.37-.59,2,2,0,0,1,.58-.4,2.35,2.35,0,0,1,.7-.2,2.16,2.16,0,0,1,.44,0,1.76,1.76,0,0,1,.4.07,1.9,1.9,0,0,1,.36.12,2.09,2.09,0,0,1,.3.14l-.54.93s-.05,0-.11-.08l-.25-.12-.35-.1a1.6,1.6,0,0,0-.38,0,.67.67,0,0,0-.4.16.42.42,0,0,0-.11.34.31.31,0,0,0,.23.26c.14,0,.33.09.58.14a3,3,0,0,1,.45.12,1.16,1.16,0,0,1,.37.18.81.81,0,0,1,.25.27,1.05,1.05,0,0,1,.12.39,1.51,1.51,0,0,1-.08.78,1.49,1.49,0,0,1-.39.56,1.79,1.79,0,0,1-.6.35A2.71,2.71,0,0,1,137,346.73Z" style="fill:#c7c7c7"></path><path d="M140.72,346.31a3.28,3.28,0,0,1-.94,0A2.36,2.36,0,0,1,139,346l.54-1a.49.49,0,0,0,.14.11,1.4,1.4,0,0,0,.3.14,2.1,2.1,0,0,0,.42.12,1.53,1.53,0,0,0,.48,0,.58.58,0,0,0,.41-.16.36.36,0,0,0,.1-.3.26.26,0,0,0-.09-.17.68.68,0,0,0-.21-.11,1.71,1.71,0,0,0-.29-.08l-.36-.08a1.87,1.87,0,0,1-.72-.31.76.76,0,0,1-.29-.57,1.52,1.52,0,0,1,.08-.74,1.64,1.64,0,0,1,.37-.59,1.87,1.87,0,0,1,.58-.4,2.35,2.35,0,0,1,.7-.2,2.16,2.16,0,0,1,.44,0,1.76,1.76,0,0,1,.4.07,1.9,1.9,0,0,1,.36.12l.3.14-.54.93s0,0-.11-.08a1.62,1.62,0,0,0-.26-.12,2.31,2.31,0,0,0-.34-.1,1.2,1.2,0,0,0-.38,0,.67.67,0,0,0-.4.16.41.41,0,0,0-.11.34.31.31,0,0,0,.23.26c.14,0,.33.09.58.14a3,3,0,0,1,.45.12,1.16,1.16,0,0,1,.37.18.81.81,0,0,1,.25.27,1.05,1.05,0,0,1,.12.39,1.62,1.62,0,0,1-.08.78,1.49,1.49,0,0,1-.39.56,1.89,1.89,0,0,1-.6.35A2.71,2.71,0,0,1,140.72,346.31Z" style="fill:#c7c7c7"></path><path d="M146,343.29a.85.85,0,0,1,0,.32,1,1,0,0,1-.16.29,1.27,1.27,0,0,1-.25.21.88.88,0,0,1-.3.1.49.49,0,0,1-.41-.12.62.62,0,0,1-.2-.39.69.69,0,0,1,0-.32.85.85,0,0,1,.16-.28.72.72,0,0,1,.25-.21.63.63,0,0,1,.3-.1.49.49,0,0,1,.41.12A.58.58,0,0,1,146,343.29Z" style="fill:#c7c7c7"></path><path d="M150,340.68l1.6-.18a1.81,1.81,0,0,1,.78.05,1.41,1.41,0,0,1,.58.31,1.37,1.37,0,0,1,.37.51,2.15,2.15,0,0,1,.19.67,3.18,3.18,0,0,1-.08,1.12,2.55,2.55,0,0,1-.47.93,2.67,2.67,0,0,1-.78.67,2.7,2.7,0,0,1-1,.32l-1.6.18Zm1.24,3.47a1.18,1.18,0,0,0,.56-.2,1.49,1.49,0,0,0,.41-.42,1.78,1.78,0,0,0,.22-.57,1.72,1.72,0,0,0,0-.64,1.1,1.1,0,0,0-.29-.69.74.74,0,0,0-.66-.2l-.57.06-.26,2.73Z" style="fill:#c7c7c7"></path><path d="M155.84,344.59a1.63,1.63,0,0,1-.74-.07,1.58,1.58,0,0,1-.58-.36,1.76,1.76,0,0,1-.39-.56,2.36,2.36,0,0,1-.19-.69,2.22,2.22,0,0,1,0-.68,3.89,3.89,0,0,1,.21-.66,2.78,2.78,0,0,1,.37-.59,2.9,2.9,0,0,1,.49-.5,3.37,3.37,0,0,1,.61-.36,2.55,2.55,0,0,1,.67-.18,1.63,1.63,0,0,1,.74.08,1.65,1.65,0,0,1,.57.35,1.92,1.92,0,0,1,.39.57,2.36,2.36,0,0,1,.19.69,2.29,2.29,0,0,1-.11,1,2.81,2.81,0,0,1-.49.92,2.76,2.76,0,0,1-.78.7A2.3,2.3,0,0,1,155.84,344.59Zm.1-.94a1.2,1.2,0,0,0,.57-.22,1.67,1.67,0,0,0,.39-.45,2.32,2.32,0,0,0,.22-.57,2.05,2.05,0,0,0,0-.6,1.64,1.64,0,0,0-.1-.38,1.05,1.05,0,0,0-.18-.31.7.7,0,0,0-.29-.19.68.68,0,0,0-.38,0,1,1,0,0,0-.56.22,1.4,1.4,0,0,0-.4.44,1.78,1.78,0,0,0-.22.57,2,2,0,0,0,0,.59,1.59,1.59,0,0,0,.09.39,1.08,1.08,0,0,0,.19.31.88.88,0,0,0,.29.2A.78.78,0,0,0,155.94,343.65Z" style="fill:#c7c7c7"></path><path d="M160.48,339.5l.81-.09,1.63,2.47.26-2.69,1-.11-.45,4.58-.82.09-1.63-2.41-.26,2.62-1,.12Z" style="fill:#c7c7c7"></path><path d="M166.5,343.39a1.66,1.66,0,0,1-.75-.07,1.54,1.54,0,0,1-.57-.36,1.63,1.63,0,0,1-.4-.56,2.72,2.72,0,0,1-.19-.69,2.59,2.59,0,0,1,0-.68,2.67,2.67,0,0,1,.21-.66,3.21,3.21,0,0,1,.36-.59,3,3,0,0,1,.5-.5,3.67,3.67,0,0,1,.6-.36,2.62,2.62,0,0,1,.68-.18,1.59,1.59,0,0,1,.73.08,1.61,1.61,0,0,1,.58.35,1.92,1.92,0,0,1,.39.57,2.36,2.36,0,0,1,.19.69,2.45,2.45,0,0,1-.11,1,2.81,2.81,0,0,1-.49.92,3.06,3.06,0,0,1-.78.7A2.3,2.3,0,0,1,166.5,343.39Zm.09-.94a1.2,1.2,0,0,0,.57-.22,1.9,1.9,0,0,0,.4-.45,2,2,0,0,0,.21-.57,1.76,1.76,0,0,0,0-.6,1.24,1.24,0,0,0-.09-.38,1.08,1.08,0,0,0-.19-.31.67.67,0,0,0-.28-.19.68.68,0,0,0-.38,0,1,1,0,0,0-.57.22,1.68,1.68,0,0,0-.4.44,1.77,1.77,0,0,0-.21.57,1.7,1.7,0,0,0,0,.59,1.59,1.59,0,0,0,.1.39,1.08,1.08,0,0,0,.19.31,1,1,0,0,0,.28.2A.78.78,0,0,0,166.59,342.45Z" style="fill:#c7c7c7"></path><path d="M170.16,339.33l-1.28.14.09-.93,3.59-.4-.09.93-1.27.14-.36,3.65-1,.12Z" style="fill:#c7c7c7"></path><path d="M175.81,342.34a1.46,1.46,0,0,1-.73-.08,1.75,1.75,0,0,1-.57-.37,1.92,1.92,0,0,1-.39-.57,2.42,2.42,0,0,1-.19-.7,2.22,2.22,0,0,1,0-.63,2.94,2.94,0,0,1,.19-.64,2.36,2.36,0,0,1,.35-.59,2.9,2.9,0,0,1,.48-.51,3.1,3.1,0,0,1,.61-.37,2.39,2.39,0,0,1,.72-.19,1.68,1.68,0,0,1,1,.16,1.29,1.29,0,0,1,.59.65l-.85.66a.81.81,0,0,0-.14-.28.69.69,0,0,0-.22-.17.79.79,0,0,0-.26-.08h-.26a1,1,0,0,0-.57.22,1.49,1.49,0,0,0-.39.44,2,2,0,0,0-.21.57,1.6,1.6,0,0,0,0,.57,1.8,1.8,0,0,0,.1.4,1.1,1.1,0,0,0,.2.31.72.72,0,0,0,.29.2.74.74,0,0,0,.37,0,1.08,1.08,0,0,0,.27-.07,1.16,1.16,0,0,0,.27-.14,1.27,1.27,0,0,0,.25-.22,1,1,0,0,0,.19-.31l.8.42a2.18,2.18,0,0,1-.81.86,2.73,2.73,0,0,1-.54.27A2.3,2.3,0,0,1,175.81,342.34Z" style="fill:#c7c7c7"></path><path d="M178.11,342l.45-4.58,1.92-.22a.94.94,0,0,1,.48.06,1,1,0,0,1,.38.24,1.46,1.46,0,0,1,.27.38,1.49,1.49,0,0,1,.12.46,1.25,1.25,0,0,1,0,.47,1.83,1.83,0,0,1-.15.45,1.62,1.62,0,0,1-.27.41,1.42,1.42,0,0,1-.36.33l.76,1.6-1.16.13-.66-1.39-.58.07-.14,1.48Zm2.13-2.61a.48.48,0,0,0,.18-.08.58.58,0,0,0,.15-.19.93.93,0,0,0,.1-.25,1,1,0,0,0,0-.3.62.62,0,0,0-.12-.33.26.26,0,0,0-.23-.1l-.83.09-.12,1.26Z" style="fill:#c7c7c7"></path><path d="M184.1,341.41a1.78,1.78,0,0,1-.74-.07,1.66,1.66,0,0,1-.58-.36,2,2,0,0,1-.39-.56,2.36,2.36,0,0,1-.19-.69,2.21,2.21,0,0,1,0-.68,2.54,2.54,0,0,1,.21-.66,3.08,3.08,0,0,1,.36-.6,2.9,2.9,0,0,1,.5-.49,2.28,2.28,0,0,1,.6-.36,2,2,0,0,1,.67-.18,1.63,1.63,0,0,1,.74.07,1.68,1.68,0,0,1,.57.36,1.87,1.87,0,0,1,.39.56,2.09,2.09,0,0,1,.19.69,2.49,2.49,0,0,1-.1,1,3.13,3.13,0,0,1-.49.92,3.06,3.06,0,0,1-.78.7A2.48,2.48,0,0,1,184.1,341.41Zm.1-1a1,1,0,0,0,.57-.22,1.41,1.41,0,0,0,.39-.45,1.78,1.78,0,0,0,.22-.57,2,2,0,0,0,0-.59,1.59,1.59,0,0,0-.09-.39,1,1,0,0,0-.19-.3.69.69,0,0,0-.28-.2,1,1,0,0,0-.39,0,1.2,1.2,0,0,0-.56.22,1.44,1.44,0,0,0-.4.45,2.11,2.11,0,0,0-.22.56,2,2,0,0,0,0,.59,1.59,1.59,0,0,0,.1.39.94.94,0,0,0,.18.31.72.72,0,0,0,.29.2A.68.68,0,0,0,184.2,340.46Z" style="fill:#c7c7c7"></path><path d="M188.36,340.94a3,3,0,0,1-.94,0,2.36,2.36,0,0,1-.83-.32l.54-1a.49.49,0,0,0,.14.11,1.4,1.4,0,0,0,.3.14,2.1,2.1,0,0,0,.42.12,1.55,1.55,0,0,0,.48,0,.63.63,0,0,0,.42-.16.39.39,0,0,0,.09-.3.26.26,0,0,0-.09-.17.68.68,0,0,0-.21-.11,1.71,1.71,0,0,0-.29-.08l-.36-.08a1.86,1.86,0,0,1-.72-.31.79.79,0,0,1-.29-.56,1.69,1.69,0,0,1,.08-.75,1.9,1.9,0,0,1,.37-.59,2.21,2.21,0,0,1,.58-.4,2.35,2.35,0,0,1,.7-.2h.44a2.38,2.38,0,0,1,.4.07,1.9,1.9,0,0,1,.36.12l.3.14-.54.93a.49.49,0,0,0-.11-.08l-.25-.12a1.79,1.79,0,0,0-.35-.09,1.15,1.15,0,0,0-.37,0,.64.64,0,0,0-.4.16.42.42,0,0,0-.12.34.31.31,0,0,0,.23.26c.14,0,.33.09.58.14a3.09,3.09,0,0,1,.46.12,1.11,1.11,0,0,1,.36.18.81.81,0,0,1,.25.27,1.12,1.12,0,0,1,.12.39,1.51,1.51,0,0,1-.08.78,1.49,1.49,0,0,1-.39.56,1.79,1.79,0,0,1-.6.35A2.34,2.34,0,0,1,188.36,340.94Z" style="fill:#c7c7c7"></path><path d="M192.11,340.52a3.31,3.31,0,0,1-.94,0,2.45,2.45,0,0,1-.83-.33l.55-1a.39.39,0,0,0,.13.11,1.29,1.29,0,0,0,.31.14,2.22,2.22,0,0,0,.41.11,1.55,1.55,0,0,0,.48,0,.66.66,0,0,0,.42-.16.32.32,0,0,0,.09-.3.2.2,0,0,0-.09-.17.75.75,0,0,0-.2-.11l-.3-.08-.36-.08a2,2,0,0,1-.72-.31.83.83,0,0,1-.29-.57,1.64,1.64,0,0,1,.08-.74,1.66,1.66,0,0,1,.38-.59,2,2,0,0,1,.57-.4,2.23,2.23,0,0,1,.7-.2,1.62,1.62,0,0,1,.44,0,1.85,1.85,0,0,1,.41.07,2.06,2.06,0,0,1,.35.12,2.09,2.09,0,0,1,.3.14l-.53.93a.26.26,0,0,0-.12-.08,1.47,1.47,0,0,0-.25-.12,2.75,2.75,0,0,0-.34-.1,1.21,1.21,0,0,0-.38,0,.64.64,0,0,0-.4.16.38.38,0,0,0-.11.34.29.29,0,0,0,.22.25,4.27,4.27,0,0,0,.58.15,4.46,4.46,0,0,1,.46.11,1.51,1.51,0,0,1,.36.18.91.91,0,0,1,.25.27.94.94,0,0,1,.13.4,1.62,1.62,0,0,1-.09.78,1.49,1.49,0,0,1-.39.56,1.85,1.85,0,0,1-.59.35A2.79,2.79,0,0,1,192.11,340.52Z" style="fill:#c7c7c7"></path><path d="M197.38,337.5a.58.58,0,0,1,0,.32.83.83,0,0,1-.16.29,1,1,0,0,1-.25.21.88.88,0,0,1-.3.1.47.47,0,0,1-.41-.13.61.61,0,0,1-.19-.39.89.89,0,0,1,0-.32,1.56,1.56,0,0,1,.16-.28,1,1,0,0,1,.25-.2.63.63,0,0,1,.3-.1.49.49,0,0,1,.41.12A.52.52,0,0,1,197.38,337.5Z" style="fill:#c7c7c7"></path><path d="M201.41,334.89l1.6-.18a1.81,1.81,0,0,1,.78.05,1.42,1.42,0,0,1,.57.3,1.52,1.52,0,0,1,.38.52,2.45,2.45,0,0,1,.18.67,2.77,2.77,0,0,1-.08,1.12,2.54,2.54,0,0,1-.46.93,2.67,2.67,0,0,1-.78.67,2.75,2.75,0,0,1-1,.32l-1.6.18Zm1.24,3.47a1.18,1.18,0,0,0,.56-.2,1.46,1.46,0,0,0,.4-.42,1.8,1.8,0,0,0,.23-.57,2.33,2.33,0,0,0,0-.65,1.1,1.1,0,0,0-.3-.68.7.7,0,0,0-.65-.2l-.57.06-.27,2.72Z" style="fill:#c7c7c7"></path><path d="M207.19,338.81a1.63,1.63,0,0,1-.74-.08,1.52,1.52,0,0,1-.57-.35,1.78,1.78,0,0,1-.4-.57,2.2,2.2,0,0,1-.19-.69,2.55,2.55,0,0,1,.24-1.33,3.67,3.67,0,0,1,.36-.6,2.9,2.9,0,0,1,.5-.49,2.65,2.65,0,0,1,.6-.36,2,2,0,0,1,.68-.18,1.59,1.59,0,0,1,.73.07,1.5,1.5,0,0,1,.58.36,1.87,1.87,0,0,1,.39.56,2.72,2.72,0,0,1,.19.69,2.5,2.5,0,0,1-.11,1,3,3,0,0,1-.49.92,3.06,3.06,0,0,1-.78.7A2.43,2.43,0,0,1,207.19,338.81Zm.1-.95a1.1,1.1,0,0,0,.57-.22,1.41,1.41,0,0,0,.39-.45,1.73,1.73,0,0,0,.22-.57,2,2,0,0,0,0-.59,1.24,1.24,0,0,0-.09-.39,1.08,1.08,0,0,0-.19-.31.77.77,0,0,0-.28-.19.78.78,0,0,0-.38,0,1.2,1.2,0,0,0-.57.22,1.53,1.53,0,0,0-.4.44,2,2,0,0,0-.21.57,1.71,1.71,0,0,0,0,.59,1.59,1.59,0,0,0,.1.39,1,1,0,0,0,.19.31.63.63,0,0,0,.28.2A.68.68,0,0,0,207.29,337.86Z" style="fill:#c7c7c7"></path><path d="M211.85,333.71l.81-.09,1.64,2.47.26-2.69,1-.11-.44,4.58-.82.09-1.64-2.41-.25,2.63-1,.11Z" style="fill:#c7c7c7"></path><path d="M217.88,337.6a1.63,1.63,0,0,1-.74-.07,1.58,1.58,0,0,1-.58-.36,1.87,1.87,0,0,1-.39-.56,2.36,2.36,0,0,1-.19-.69,2,2,0,0,1,0-.68,2.54,2.54,0,0,1,.21-.66,2.39,2.39,0,0,1,.36-.59,2.63,2.63,0,0,1,.5-.5,3,3,0,0,1,.6-.36,2.55,2.55,0,0,1,.67-.18,1.63,1.63,0,0,1,.74.08,1.65,1.65,0,0,1,.57.35,1.92,1.92,0,0,1,.39.57,2.38,2.38,0,0,1,.19.68,2.32,2.32,0,0,1-.11,1,2.63,2.63,0,0,1-.49.92,2.76,2.76,0,0,1-.78.7A2.3,2.3,0,0,1,217.88,337.6Zm.1-.94a1.11,1.11,0,0,0,.57-.23,1.41,1.41,0,0,0,.39-.45,2,2,0,0,0,.22-.57,2,2,0,0,0,0-.59,2.11,2.11,0,0,0-.09-.38,1.35,1.35,0,0,0-.19-.31.7.7,0,0,0-.29-.19.68.68,0,0,0-.38,0,1,1,0,0,0-.56.22,1.4,1.4,0,0,0-.4.44,2,2,0,0,0-.22.57,2,2,0,0,0,0,.59,2.23,2.23,0,0,0,.09.39,1.08,1.08,0,0,0,.19.31.81.81,0,0,0,.29.19A.78.78,0,0,0,218,336.66Z" style="fill:#c7c7c7"></path><path d="M221.53,333.54l-1.28.14.09-.93,3.59-.4-.09.93-1.27.14-.36,3.66-1,.11Z" style="fill:#c7c7c7"></path><path d="M227.2,336.55a1.59,1.59,0,0,1-.73-.08,1.56,1.56,0,0,1-.57-.37,1.92,1.92,0,0,1-.39-.57,2.14,2.14,0,0,1-.19-.7,2,2,0,0,1,0-.64,2.52,2.52,0,0,1,.19-.63,2.66,2.66,0,0,1,.34-.59,3,3,0,0,1,.49-.51,3.1,3.1,0,0,1,.61-.37,2.39,2.39,0,0,1,.72-.19,1.68,1.68,0,0,1,1,.16,1.33,1.33,0,0,1,.59.65l-.85.66a1,1,0,0,0-.15-.29.65.65,0,0,0-.21-.16.79.79,0,0,0-.26-.08h-.26a1.2,1.2,0,0,0-.57.22,1.67,1.67,0,0,0-.39.45,1.84,1.84,0,0,0-.25,1.14,1.59,1.59,0,0,0,.1.39,1,1,0,0,0,.2.32.69.69,0,0,0,.28.2.78.78,0,0,0,.37.05,1.34,1.34,0,0,0,.27-.07.87.87,0,0,0,.27-.14,1,1,0,0,0,.25-.22,1.1,1.1,0,0,0,.2-.31l.8.41a2,2,0,0,1-.34.49,2.12,2.12,0,0,1-.47.38,2.73,2.73,0,0,1-.54.27A2.42,2.42,0,0,1,227.2,336.55Z" style="fill:#c7c7c7"></path><path d="M229.51,336.25l.45-4.58,1.92-.22a1.07,1.07,0,0,1,.86.3,1.12,1.12,0,0,1,.26.38,1.22,1.22,0,0,1,.13.46,1.5,1.5,0,0,1,0,.47,2,2,0,0,1-.15.45,1.82,1.82,0,0,1-.27.41,1.61,1.61,0,0,1-.36.33l.76,1.6-1.16.13-.66-1.39-.59.07-.14,1.48Zm2.13-2.61a.48.48,0,0,0,.18-.08.58.58,0,0,0,.15-.19,1.45,1.45,0,0,0,.1-.25,1.06,1.06,0,0,0,0-.31.62.62,0,0,0-.13-.32.23.23,0,0,0-.22-.1l-.83.09-.12,1.25Z" style="fill:#c7c7c7"></path><path d="M235.46,335.62a1.63,1.63,0,0,1-.74-.07,1.66,1.66,0,0,1-.58-.36,1.87,1.87,0,0,1-.39-.56,2.36,2.36,0,0,1-.19-.69,2.21,2.21,0,0,1,0-.68,2.54,2.54,0,0,1,.21-.66,2.74,2.74,0,0,1,.36-.59,2.63,2.63,0,0,1,.5-.5,2.58,2.58,0,0,1,.6-.36,2.55,2.55,0,0,1,.67-.18,1.63,1.63,0,0,1,.74.08,1.65,1.65,0,0,1,.57.35,1.92,1.92,0,0,1,.39.57,2,2,0,0,1,.19.68,2.47,2.47,0,0,1-.1,1,3.13,3.13,0,0,1-.49.92,3.06,3.06,0,0,1-.78.7A2.34,2.34,0,0,1,235.46,335.62Zm.1-.94a1.11,1.11,0,0,0,.57-.23,1.41,1.41,0,0,0,.39-.45,1.78,1.78,0,0,0,.22-.57,2,2,0,0,0,0-.59,1.51,1.51,0,0,0-.09-.38,1.08,1.08,0,0,0-.19-.31.75.75,0,0,0-.29-.2.91.91,0,0,0-.38,0,1.2,1.2,0,0,0-.56.22,1.43,1.43,0,0,0-.4.45,2,2,0,0,0-.22.57,2,2,0,0,0,0,.59,1.72,1.72,0,0,0,.1.39,1.05,1.05,0,0,0,.18.31.81.81,0,0,0,.29.19A.78.78,0,0,0,235.56,334.68Z" style="fill:#c7c7c7"></path><path d="M239.74,335.15a3,3,0,0,1-1,0,2.31,2.31,0,0,1-.82-.32l.54-1a.39.39,0,0,0,.13.11,1.29,1.29,0,0,0,.31.14,2.1,2.1,0,0,0,.42.12,1.53,1.53,0,0,0,.48,0,.58.58,0,0,0,.41-.16.36.36,0,0,0,.1-.3.26.26,0,0,0-.09-.17.82.82,0,0,0-.21-.11l-.3-.08-.35-.08a1.84,1.84,0,0,1-.73-.31.83.83,0,0,1-.29-.56,1.56,1.56,0,0,1,.09-.75,1.73,1.73,0,0,1,.37-.59,2.16,2.16,0,0,1,.57-.4,2.53,2.53,0,0,1,.7-.2h.44a2.5,2.5,0,0,1,.41.07,1.8,1.8,0,0,1,.35.12l.3.14-.53.93-.12-.08a1.47,1.47,0,0,0-.25-.12,1.53,1.53,0,0,0-.34-.09,1.22,1.22,0,0,0-.38,0,.64.64,0,0,0-.4.16.39.39,0,0,0-.11.34.29.29,0,0,0,.23.26l.57.14a2.8,2.8,0,0,1,.46.12,1.16,1.16,0,0,1,.37.18.93.93,0,0,1,.25.27,1.12,1.12,0,0,1,.12.39,1.62,1.62,0,0,1-.09.78,1.49,1.49,0,0,1-.39.56,1.85,1.85,0,0,1-.59.35A2.34,2.34,0,0,1,239.74,335.15Z" style="fill:#c7c7c7"></path><path d="M243.47,334.73a3,3,0,0,1-.94,0,2.44,2.44,0,0,1-.83-.32l.54-1a.49.49,0,0,0,.14.11,1.4,1.4,0,0,0,.3.14,2.32,2.32,0,0,0,.42.12,1.55,1.55,0,0,0,.48,0,.63.63,0,0,0,.42-.16.35.35,0,0,0,.09-.3.26.26,0,0,0-.09-.17.75.75,0,0,0-.2-.11l-.3-.08-.36-.08a1.86,1.86,0,0,1-.72-.31.83.83,0,0,1-.29-.56,1.69,1.69,0,0,1,.08-.75,1.9,1.9,0,0,1,.37-.59,2.39,2.39,0,0,1,.58-.4,2.44,2.44,0,0,1,.7-.2h.44a2.38,2.38,0,0,1,.4.07,1.9,1.9,0,0,1,.36.12l.3.14-.53.93-.12-.08-.25-.12a1.69,1.69,0,0,0-.34-.09,1.23,1.23,0,0,0-.38,0,.64.64,0,0,0-.4.16.39.39,0,0,0-.11.34.28.28,0,0,0,.22.26c.14,0,.33.09.58.14a2.8,2.8,0,0,1,.46.12,1,1,0,0,1,.36.18.72.72,0,0,1,.25.27.81.81,0,0,1,.12.39,1.51,1.51,0,0,1-.08.78,1.49,1.49,0,0,1-.39.56,1.85,1.85,0,0,1-.59.35A2.9,2.9,0,0,1,243.47,334.73Z" style="fill:#c7c7c7"></path><path d="M248.75,331.72a.7.7,0,0,1,0,.32,1.12,1.12,0,0,1-.16.28,1.27,1.27,0,0,1-.25.21.88.88,0,0,1-.3.1.49.49,0,0,1-.41-.12.56.56,0,0,1-.19-.39.69.69,0,0,1,0-.32.85.85,0,0,1,.16-.28,1,1,0,0,1,.25-.21.76.76,0,0,1,.3-.1.49.49,0,0,1,.41.12A.56.56,0,0,1,248.75,331.72Z" style="fill:#c7c7c7"></path><path d="M252.78,329.1l1.6-.18a1.75,1.75,0,0,1,.77.05,1.41,1.41,0,0,1,.58.31,1.48,1.48,0,0,1,.38.51,2.45,2.45,0,0,1,.18.67,3,3,0,0,1-.08,1.12,2.62,2.62,0,0,1-2.28,1.92l-1.6.18Zm1.24,3.47a1.22,1.22,0,0,0,.56-.2,1.46,1.46,0,0,0,.4-.42,1.8,1.8,0,0,0,.23-.57,2,2,0,0,0,0-.64,1.1,1.1,0,0,0-.29-.69.73.73,0,0,0-.65-.2l-.57.06-.27,2.73Z" style="fill:#c7c7c7"></path><path d="M258.58,333a1.63,1.63,0,0,1-.74-.08,1.8,1.8,0,0,1-.58-.35,1.92,1.92,0,0,1-.39-.57,2.2,2.2,0,0,1-.19-.69,2.55,2.55,0,0,1,.24-1.33,3.67,3.67,0,0,1,.36-.6,3,3,0,0,1,.5-.5,2.55,2.55,0,0,1,.6-.35,2.3,2.3,0,0,1,.68-.19,1.6,1.6,0,0,1,.73.08,1.58,1.58,0,0,1,.58.36,1.68,1.68,0,0,1,.38.56,2.09,2.09,0,0,1,.19.69,2.34,2.34,0,0,1-.1,1,3.26,3.26,0,0,1-.49.92,3.06,3.06,0,0,1-.78.7A2.48,2.48,0,0,1,258.58,333Zm.1-.95a1.1,1.1,0,0,0,.57-.22,1.67,1.67,0,0,0,.39-.45,1.73,1.73,0,0,0,.22-.57,2,2,0,0,0,0-.59,1.24,1.24,0,0,0-.09-.39,1.08,1.08,0,0,0-.19-.31.77.77,0,0,0-.28-.19.83.83,0,0,0-.39,0,1.1,1.1,0,0,0-.56.22,1.53,1.53,0,0,0-.4.44,2,2,0,0,0-.21.57,1.71,1.71,0,0,0,0,.59,1.59,1.59,0,0,0,.1.39,1.08,1.08,0,0,0,.19.31.72.72,0,0,0,.28.2A.78.78,0,0,0,258.68,332.07Z" style="fill:#c7c7c7"></path><rect x="87.84" y="272.91" width="6.23" height="146.46" style="fill:#ebebeb"></rect><polygon points="116.26 424.09 65.64 424.09 87.83 419.37 94.07 419.37 116.26 424.09" style="fill:#ebebeb"></polygon><rect x="257.32" y="272.91" width="6.23" height="146.46" style="fill:#ebebeb"></rect><polygon points="285.74 424.09 235.13 424.09 257.31 419.37 263.56 419.37 285.74 424.09" style="fill:#ebebeb"></polygon></g><g id="freepik--Shadow--inject-18"><ellipse cx="353.53" cy="457.45" rx="110.6" ry="9.76" style="fill:#ebebeb"></ellipse></g><g id="freepik--Plants--inject-18"><path d="M230.33,400.94c-3.33.12-7.05.31-9.81-1.85-2.55-2-4.83-5-4.49-8.39.09-1,.32-1.58,1.36-1.16,1.59.63,2.82,2.39,3.92,3.62a33.74,33.74,0,0,0,4.63,4.39c1.19.91,2.46,1.69,3.67,2.58.16.1.31.22.46.33l.17.13h.1a.17.17,0,0,1,.13.08l0,.05A.18.18,0,0,1,230.33,400.94Z" style="fill:#B5BFFB"></path><path d="M230.5,400.72c-2.93-.05-6.1.09-8.44-1.9a13.78,13.78,0,0,1-2.73-3.31c-.34-.55-1.35-2.2-.93-2.85.76-1.19,4.26,3.64,4.74,4.1a14.35,14.35,0,0,0,6.47,3.37c.16.1.31.22.46.33a15.61,15.61,0,0,1-4.86-1.87c-2.09-1.24-3.24-3.07-4.87-4.79-.35-.37-1.41-1.61-1.81-.84-.27.51.71,2.12.92,2.47a13.47,13.47,0,0,0,2.58,3.14c2.34,2.05,5.49,2,8.44,2.1Z" style="fill:#fff"></path><path d="M232.17,403c0,.13,0,.25-.08.38v0a.11.11,0,0,1-.06.07.16.16,0,0,1-.18-.07.11.11,0,0,1,0-.08s0,0,0-.05l0-.12h0s0,0,0,0c-.59-2.2-.82-4.5-1.45-6.71s-1.33-4.17-1.76-6.32c-.27-1.36-1.21-8.17,1.79-7.32,1.33.38,2.24,2.3,2.74,3.45a14,14,0,0,1,1.11,4.89C234.54,395.22,233,399,232.17,403Z" style="fill:#B5BFFB"></path><path d="M233.13,394.5a15.9,15.9,0,0,0-.48-4.61c-.13-.53-.78-3-1.63-3-.55,0-.64,1.12-.69,1.48a14.27,14.27,0,0,0,.6,4.53A63.36,63.36,0,0,1,232,402c0,.19-.06.39-.08.58s0,.32-.06.48a1,1,0,0,0,0,.17s0,.08,0,.13a.14.14,0,0,0,.18.06c0-.12,0-.24.05-.37,0,.11,0,.2,0,.31h0c0-.11,0-.22.07-.32s0-.05,0-.07c0-.17,0-.34,0-.51A66.94,66.94,0,0,0,233.13,394.5Zm-1,6.88c-.08-1.79-.26-3.57-.51-5.34-.2-1.42-.47-2.83-.77-4.24a14.06,14.06,0,0,1-.38-2.41c0-.62.06-2.92,1.24-1.49.86,1,1.06,3.23,1.17,4.49a23.92,23.92,0,0,1-.09,4.23C232.62,398.21,232.36,399.79,232.12,401.38Z" style="fill:#fff"></path><path d="M234,412.13h0l-.12,0c-3-.16-7.12.13-9.66-1.89-1.87-1.49-3.71-4.43-3.12-6.93.68-2.82,4.48.56,5.49,1.37A93.17,93.17,0,0,1,234,412l0,0h0S234,412.12,234,412.13Z" style="fill:#B5BFFB"></path><path d="M234.08,412c-.18-.11-.36-.21-.53-.33q-3-1.89-5.84-4c-.48-.36-3.91-3.42-4.43-2.33-.31.66.83,2,1.19,2.46a9.48,9.48,0,0,0,2.31,2.07c2,1.27,4.5,1.54,6.8,2.15l.33.08.06,0h0C234,412.12,234.1,412.09,234.08,412Zm-6-1.73a9.61,9.61,0,0,1-2.63-1.78c-.51-.49-2.32-2.31-1.84-3.06.26-.4.47-.19,1,0a6.84,6.84,0,0,1,.65.37c.51.34,1,.73,1.46,1.11.84.67,1.68,1.32,2.55,1.95,1.42,1,2.88,2,4.37,2.93A48.32,48.32,0,0,1,228,410.31Z" style="fill:#fff"></path><path d="M239.54,405.85a18,18,0,0,1-5.23,9.13.09.09,0,0,1-.05,0,.15.15,0,0,1-.16-.06.13.13,0,0,1,0-.17l.15-.16c.51-4.14,1.06-8.27,1.49-12.43.1-1,.87-7.21,2.78-6.2,1.19.63,1.27,3.19,1.37,4.34A18.3,18.3,0,0,1,239.54,405.85Z" style="fill:#B5BFFB"></path><path d="M238.43,400.29c-.1-.35-.28-.7-.67-.46-.74.47-1,3.4-1.16,4.21-.51,3.34-1.3,6.56-2.11,9.83-.07.28-.14.56-.2.84l-.19.24a.13.13,0,0,0,.16.06s0-.06,0-.08.17-.22.25-.34h0a21.48,21.48,0,0,0,3-5.89,20.39,20.39,0,0,0,.89-4.1A11.78,11.78,0,0,0,238.43,400.29Zm-3.91,14.07a1.63,1.63,0,0,0-.11.17c0-.11.07-.22.1-.34a59.93,59.93,0,0,0,1.87-7.61c.22-1.31.36-2.62.63-3.92.11-.55.38-2.12.83-2.37s.45.36.5.71,0,.71,0,.95A21,21,0,0,1,234.52,414.36Z" style="fill:#fff"></path><path d="M234.82,423.92h-.61c0-.54,0-1.08,0-1.61-.07-2.16-.16-4.33-.29-6.5-.07-1.23-.16-2.46-.29-3.67,0-.05,0-.09,0-.13s0-.19,0-.3,0-.21,0-.32a26,26,0,0,0-2.1-8c-.39-.84-.81-1.67-1.25-2.48,0-.08-.09-.16-.13-.24l0-.06-.13-.24-.11-.18c-1.41-2.48-3-4.86-4.55-7.25l-1.31-2.05-.08-.13-.1-.15c-1.92-3-3.81-6.09-5.81-9.07-.08-.11.1-.21.18-.1,1.35,2,2.74,3.92,4.13,5.87l.55.78,1.09,1.55c.73,1,1.44,2.07,2.14,3.12a87.24,87.24,0,0,1,5.61,9.08c.12.24.24.48.35.72l.21.45c.08.17.16.35.23.52a28.11,28.11,0,0,1,2.06,9.61c0,.23,0,.46,0,.69s0,.22,0,.32a.91.91,0,0,0,0,.17c0,.08,0,.15,0,.23h0c0,.05,0,.11,0,.17s0,.39,0,.59q.13,3.25.19,6.5C234.77,422.53,234.79,423.23,234.82,423.92Z" style="fill:#B5BFFB"></path><path d="M216.61,384.67c-1.67-2.24-3.81-6.88-1.35-9.29a2.62,2.62,0,0,1,3.49-.25c1.3.94,1.89,2.71,2.31,4.19,1.13,3.92,1.87,7.93,3.28,11.78a3.06,3.06,0,0,1,.15.41c0,.08-.09.11-.12,0s-.1-.25-.14-.38C221.57,389.24,218.59,387.34,216.61,384.67Z" style="fill:#B5BFFB"></path><path d="M224.36,391.11a.25.25,0,0,0,0-.07,29,29,0,0,1-1.56-2.91,56.9,56.9,0,0,1-2.4-6.43c-.27-.84-1.47-5-2.94-3.32a3.67,3.67,0,0,0-.43,2.76,10.4,10.4,0,0,0,1.28,3.87,18.89,18.89,0,0,0,5.54,5.79l.3.22.06.11a.21.21,0,0,0,0,.06.08.08,0,0,0,0,0,.09.09,0,0,0,.12-.06A0,0,0,0,0,224.36,391.11Zm-.65-.46a22.1,22.1,0,0,1-4.7-4.71,11.81,11.81,0,0,1-1.53-3.13,9.68,9.68,0,0,1-.33-1.51,7.53,7.53,0,0,1-.07-1.16c0-.85.38-1.77.88-1.86s.83.25,1.24,1a7.29,7.29,0,0,1,.37.74c.27.64.48,1.3.69,2,.35,1.09.7,2.18,1.09,3.25.26.73.55,1.45.86,2.16a27.8,27.8,0,0,0,1.83,3.56Z" style="fill:#fff"></path><path d="M81.93,391c-.28,2.22-.71,4.43-1.16,6.62-.25,1.25-.52,2.49-.77,3.74a8.93,8.93,0,0,0-.31,4.16h0a.71.71,0,0,1,0,.2l0,0a.16.16,0,0,1-.28-.05l0-.09,0,0a5,5,0,0,1-.48-1.16,27.65,27.65,0,0,1-1.11-3.21,28.12,28.12,0,0,1-1.08-6.87,23.33,23.33,0,0,1,.65-6.18c.39-1.62,1-4,2.16-5.27s2,.67,2.32,1.58C82.53,386.47,82.19,388.84,81.93,391Z" style="fill:#B5BFFB"></path><path d="M79.93,386.23c-.81,0-1.4,2.62-1.69,3.75a22.82,22.82,0,0,0-.69,5.46,29.15,29.15,0,0,0,1.68,9.7c0,.12.08.25.13.38l0,0a.94.94,0,0,1,0,.09.17.17,0,0,0,.29.05,7.76,7.76,0,0,1-.13-.82c0-.25-.06-.49-.07-.73a38.58,38.58,0,0,1,.5-8C80.39,393,81,386.23,79.93,386.23Zm-.58,18.43c0,.36.1.72.16,1.07l-.24-.78a32.35,32.35,0,0,1-1.53-8.55,23,23,0,0,1,.36-4.9,20.2,20.2,0,0,1,.63-2.55c.11-.36.7-2.55,1.2-2.44.35.08.44,2.05.44,2.09,0,.4,0,.8,0,1.19,0,.82-.07,1.64-.14,2.45-.15,1.76-.4,3.52-.62,5.28A30.48,30.48,0,0,0,79.35,404.66Z" style="fill:#fff"></path><path d="M94.71,397.1a21.23,21.23,0,0,1-6.59,7c-1.39,1-2.83,2-4.24,3a22.21,22.21,0,0,0-3.66,2.82,1,1,0,0,0-.14.15,6,6,0,0,0-.76,1.05.1.1,0,0,1-.07,0s0,.09,0,.13a0,0,0,0,1-.06,0,.77.77,0,0,0,0-.15h0a.11.11,0,0,1,0-.11l0-.05s0-.09,0-.14c.42-3.4,2.8-6.83,4.81-9.45a18.06,18.06,0,0,1,7.59-6.12c.78-.3,2.55-1.13,3.35-.49S95,396.48,94.71,397.1Z" style="fill:#B5BFFB"></path><path d="M92.41,397.11c-.71-.71-2.8,1-3.32,1.45a34.14,34.14,0,0,0-4.31,4.19,31.21,31.21,0,0,0-5.51,8h0a.36.36,0,0,1-.07.1.78.78,0,0,0,0,.14l0,.05a.11.11,0,0,0,0,.11l.11-.12c.25-.32.53-.63.81-.93a1,1,0,0,1,.14-.15,66.17,66.17,0,0,1,6.45-5.7A31.9,31.9,0,0,0,91,400.05C91.28,399.66,93,397.7,92.41,397.11Zm-.66,1.56c-1.75,2.91-4.8,5-7.39,7.17a34.86,34.86,0,0,0-4.9,4.66,33.19,33.19,0,0,1,5.09-7.17,44.08,44.08,0,0,1,3.5-3.6A18.54,18.54,0,0,1,90.18,398a7.28,7.28,0,0,1,1.43-.77C92.6,397,92.05,398.16,91.75,398.67Z" style="fill:#fff"></path><path d="M78.85,418a.18.18,0,0,1-.15.08l0,.06s0,.05,0,.07a.06.06,0,0,1-.08,0,29.43,29.43,0,0,1-6.78-9.92,15.2,15.2,0,0,1-1-4.89c0-1.14-.09-3.45.88-4.28,2-1.67,3.77,5.43,4,6.5.49,1.95.81,3.94,1.26,5.91.5,2.14,1.15,4.25,1.79,6.35A.16.16,0,0,1,78.85,418Z" style="fill:#B5BFFB"></path><path d="M78.85,418c-.11-.18-.21-.37-.31-.55A33.05,33.05,0,0,1,75,407.94a30.57,30.57,0,0,0-1.31-5c-.16-.39-.65-1.9-1.3-1.14-.34.4-.06,3.27.08,4a21.44,21.44,0,0,0,1.59,4.88,34.38,34.38,0,0,0,4.52,7.33l.15.2a0,0,0,0,0,0-.07l0-.06A.18.18,0,0,0,78.85,418Zm-4-6.11A23.68,23.68,0,0,1,73,407.19a16.75,16.75,0,0,1-.42-2,10.65,10.65,0,0,1-.13-1.59c0-1.29.11-1.63.33-1.68s.32.12.7.89A8,8,0,0,1,74,404.4c.2.77.37,1.54.54,2.31.34,1.55.65,3.1,1.1,4.62a25.7,25.7,0,0,0,2.74,6.21A39.2,39.2,0,0,1,74.85,411.93Z" style="fill:#fff"></path><path d="M87.68,411.23A9.68,9.68,0,0,1,85.87,415c-1.63,2.26-3.72,4.14-5.51,6.27-.26.32-.52.64-.77,1,0,0-.24.51-.23.47s0-.19.09-.5h0c.29-1.49,1.22-6,2.4-8.32a19.64,19.64,0,0,1,2.61-4.08c.5-.57,1.69-1.81,2.59-1.54S87.82,410.51,87.68,411.23Z" style="fill:#B5BFFB"></path><path d="M86.23,410.31c-1-.59-3.43,3.81-3.76,4.38a28.12,28.12,0,0,0-2.81,6.72c-.08.26-.15.52-.21.79s-.1.48-.1.49.21-.42.24-.47l.13-.17.64-.8c1.07-1.6,2.17-3.19,3.21-4.82a25.39,25.39,0,0,0,2-3.66C85.69,412.48,86.65,410.57,86.23,410.31ZM86,411.55c-1.36,3.83-4.13,6.85-6.25,10.26l-.11.16.09-.3a32.18,32.18,0,0,1,2.25-5.59,30.67,30.67,0,0,1,1.89-3.16A15.83,15.83,0,0,1,85,411.28c.2-.21.76-.79,1-.69S86,411.3,86,411.55Z" style="fill:#fff"></path><path d="M97.29,379.6c-2.85,6.53-10.31,9.57-13.54,15.87v0l-.29.58a.13.13,0,0,1-.21,0,.09.09,0,0,1,0-.11l.06-.14a34.22,34.22,0,0,1,4-11.43,17.27,17.27,0,0,1,7-7.41c.76-.4,2.25-1.22,3.11-.58S97.64,378.8,97.29,379.6Z" style="fill:#B5BFFB"></path><path d="M94.73,379.88c-.36-.27-.91.06-1.22.22a11,11,0,0,0-2.16,1.47,18.23,18.23,0,0,0-3.44,4.09,37.4,37.4,0,0,0-4,8.22c-.22.65-.41,1.32-.57,2,0,.08,0,.16-.05.25a.13.13,0,0,0,.21,0l.27-.57,0,0a21.09,21.09,0,0,1,2-3.73,51,51,0,0,1,4.25-5C90.61,386.05,96,380.8,94.73,379.88Zm-.46,1.51a24,24,0,0,1-3.37,4.09c-1.18,1.32-2.37,2.62-3.53,4a24.42,24.42,0,0,0-2.49,3.39A18.78,18.78,0,0,0,83.33,396a25.17,25.17,0,0,1,1.11-3.27.05.05,0,0,1,0,0,50.23,50.23,0,0,1,2.75-5.49.43.43,0,0,0,0-.07,22.66,22.66,0,0,1,3.14-4.39,13.57,13.57,0,0,1,2.24-1.9c.94-.6,1.76-1,2-.7S94.53,380.94,94.27,381.39Z" style="fill:#fff"></path><path d="M87.36,387.25c-.85,1.84-1.67,3.71-2.48,5.58-.38.88-.76,1.76-1.13,2.64l0,0c-.13.31-.27.63-.4,1A57.4,57.4,0,0,0,80,405.3a26.64,26.64,0,0,0-.68,4.91l0,.51h0V411a.92.92,0,0,0,0,.16c-.05,1.43,0,2.87,0,4.26,0,1.95.2,3.89.38,5.82a1.11,1.11,0,0,0,0,.17,2.28,2.28,0,0,0,0,.26c0,.05,0,.09,0,.14a1.94,1.94,0,0,0,0,.24c.06.62.12,1.24.17,1.87h-.6a39.29,39.29,0,0,1-.72-5.75v-.12a5.25,5.25,0,0,1,0-.56q0-.35,0-.69c0-.56,0-1.12-.05-1.66a40.86,40.86,0,0,1,.68-9.63l.06-.26,0-.11c0-.06,0-.12,0-.19l.08-.29.15-.52,0-.16a62.41,62.41,0,0,1,3.28-7.93c.22-.47.43-.93.66-1.4.12-.25.24-.51.37-.77l.58-1.17a.05.05,0,0,1,0,0c.91-1.83,1.85-3.65,2.75-5.49C87.26,387.1,87.4,387.17,87.36,387.25Z" style="fill:#B5BFFB"></path></g><g id="freepik--Sign--inject-18"><rect x="246.18" y="71.24" width="8.15" height="352.89" style="fill:#ebebeb"></rect><circle cx="250.28" cy="130.83" r="52.4" transform="translate(64.3 343.35) rotate(-76.41)" style="fill:#fff"></circle><path d="M302.68,130.83A52.65,52.65,0,0,1,201.4,151.07a52.66,52.66,0,0,1,86-57.35,52.53,52.53,0,0,1,15.29,37.11Zm0,0a52.39,52.39,0,0,0-15.41-37,52,52,0,1,0,15.41,37Z" style="fill:#263238"></path><path d="M250.28,174.61a43.79,43.79,0,1,1,43.78-43.78A43.83,43.83,0,0,1,250.28,174.61Zm0-78.68a34.9,34.9,0,1,0,34.89,34.9A34.94,34.94,0,0,0,250.28,95.93Z" style="fill:#B5BFFB"></path><rect x="245.83" y="91.61" width="8.89" height="78.43" transform="translate(-19.2 215.29) rotate(-45)" style="fill:#B5BFFB"></rect></g><g id="freepik--401-error--inject-18"><path d="M168.47,200.9V169.74H110.18V159.23l62.14-80.52h8.05v80.17h15.41v10.86H180.37V200.9Zm-45.69-42H169.7V97.44Z" style="fill:#B5BFFB"></path><path d="M377.82,167.81v10.85H318.48V167.81h24.86V92.89a19.29,19.29,0,0,1-4.82,4.55A58.56,58.56,0,0,1,331,102a56.82,56.82,0,0,1-8.49,3.5,25.57,25.57,0,0,1-7.71,1.4V95.34a20.85,20.85,0,0,0,8.84-2.28,63,63,0,0,0,9.11-5.25,81.36,81.36,0,0,0,7.26-5.6q3-2.62,3.33-3.5h12.25v89.1Z" style="fill:#B5BFFB"></path><path d="M227.06,68.54V70.6H216.92V55.82h10v2.06h-7.62v4.2h6.6V64h-6.6v4.52Z"></path><path d="M229.47,70.6V55.82h6.44a4.07,4.07,0,0,1,1.84.41,4.9,4.9,0,0,1,1.45,1.09,5.32,5.32,0,0,1,.94,1.55,4.67,4.67,0,0,1,.35,1.75,4.92,4.92,0,0,1-.21,1.44,5.08,5.08,0,0,1-.59,1.27,3.82,3.82,0,0,1-.91,1,3.71,3.71,0,0,1-1.19.64l3.48,5.62h-2.65l-3.2-5.14H231.8V70.6Zm2.33-7.21h4.08a1.94,1.94,0,0,0,.91-.21,2.25,2.25,0,0,0,.7-.61,3.06,3.06,0,0,0,.46-.88,3.42,3.42,0,0,0,.16-1.07,2.74,2.74,0,0,0-.2-1.06,2.92,2.92,0,0,0-.52-.87,2.33,2.33,0,0,0-.74-.59,1.92,1.92,0,0,0-.89-.22h-4Z"></path><path d="M243.23,70.6V55.82h6.44a4.07,4.07,0,0,1,1.84.41A4.9,4.9,0,0,1,253,57.32a5.11,5.11,0,0,1,.94,1.55,4.67,4.67,0,0,1,.35,1.75,4.92,4.92,0,0,1-.21,1.44,5.06,5.06,0,0,1-.58,1.27,4,4,0,0,1-.92,1,3.61,3.61,0,0,1-1.19.64l3.48,5.62h-2.64L249,65.46h-3.41V70.6Zm2.34-7.21h4.08a1.93,1.93,0,0,0,.9-.21,2.15,2.15,0,0,0,.7-.61,3.06,3.06,0,0,0,.46-.88,3.43,3.43,0,0,0,.17-1.07,2.93,2.93,0,0,0-.2-1.06,3.4,3.4,0,0,0-.52-.87,2.48,2.48,0,0,0-.75-.59,1.89,1.89,0,0,0-.89-.22h-4Z"></path><path d="M263.14,70.7a6.55,6.55,0,0,1-2.89-.63A7.31,7.31,0,0,1,258,68.38a7.52,7.52,0,0,1-1.45-2.4,7.84,7.84,0,0,1-.51-2.77,7.54,7.54,0,0,1,.54-2.83,7.88,7.88,0,0,1,1.49-2.4,7.13,7.13,0,0,1,2.25-1.65,6.56,6.56,0,0,1,2.84-.62,6.23,6.23,0,0,1,2.88.66,7.25,7.25,0,0,1,2.23,1.71,7.84,7.84,0,0,1,1.44,2.41,7.68,7.68,0,0,1,.51,2.74,7.77,7.77,0,0,1-.53,2.83,7.49,7.49,0,0,1-1.49,2.38A7.28,7.28,0,0,1,266,70.09,6.53,6.53,0,0,1,263.14,70.7Zm-4.71-7.49a6.08,6.08,0,0,0,.34,2,5.41,5.41,0,0,0,.94,1.72,4.7,4.7,0,0,0,1.49,1.2,4.25,4.25,0,0,0,2,.45,4.15,4.15,0,0,0,2-.47,4.72,4.72,0,0,0,1.47-1.24,5.61,5.61,0,0,0,.91-1.73,6.35,6.35,0,0,0,0-4,5.28,5.28,0,0,0-.95-1.71,4.77,4.77,0,0,0-1.48-1.19,4.05,4.05,0,0,0-1.92-.44,4.19,4.19,0,0,0-2,.46,4.89,4.89,0,0,0-1.48,1.22,5.37,5.37,0,0,0-.92,1.72A6,6,0,0,0,258.43,63.21Z"></path><path d="M272.65,70.6V55.82h6.44a4.07,4.07,0,0,1,1.84.41,4.9,4.9,0,0,1,1.45,1.09,5.32,5.32,0,0,1,.94,1.55,4.67,4.67,0,0,1,.35,1.75,4.92,4.92,0,0,1-.21,1.44,5.06,5.06,0,0,1-.58,1.27,4,4,0,0,1-.92,1,3.71,3.71,0,0,1-1.19.64l3.48,5.62h-2.64l-3.21-5.14H275V70.6ZM275,63.39h4.09a1.93,1.93,0,0,0,.9-.21,2.25,2.25,0,0,0,.7-.61,3.06,3.06,0,0,0,.46-.88,3.42,3.42,0,0,0,.16-1.07,2.93,2.93,0,0,0-.19-1.06,3.4,3.4,0,0,0-.52-.87,2.48,2.48,0,0,0-.75-.59,1.89,1.89,0,0,0-.89-.22h-4Z"></path><path d="M193.9,198.83a2.62,2.62,0,0,0,2.39-1.24,4,4,0,0,0,.5-1.27,7.19,7.19,0,0,0,.15-1.47v-5.64h1.77v5.64a8.41,8.41,0,0,1-.27,2.16,5,5,0,0,1-.84,1.77,4.14,4.14,0,0,1-1.5,1.2,5.08,5.08,0,0,1-2.2.44,4.93,4.93,0,0,1-2.25-.47,4.06,4.06,0,0,1-1.48-1.23,5.1,5.1,0,0,1-.82-1.78,9,9,0,0,1-.25-2.09v-5.64h1.76v5.64a7.14,7.14,0,0,0,.15,1.48,3.67,3.67,0,0,0,.5,1.27,2.71,2.71,0,0,0,.94.9A2.91,2.91,0,0,0,193.9,198.83Z"></path><path d="M202.8,192.5v7.84h-1.75V189.21h1.38l6.36,8v-8h1.77v11.11H209.1Z"></path><path d="M216.34,189.21h1.54l4.39,11.13h-1.85l-1.18-3H215l-1.16,3h-1.87Zm2.56,6.8-1.79-4.78L215.26,196Z"></path><path d="M227.8,198.83a2.82,2.82,0,0,0,1.46-.34,2.76,2.76,0,0,0,.93-.9,3.75,3.75,0,0,0,.5-1.27,7.19,7.19,0,0,0,.15-1.47v-5.64h1.77v5.64a8.88,8.88,0,0,1-.26,2.16,5,5,0,0,1-.85,1.77A4.14,4.14,0,0,1,230,200a5.08,5.08,0,0,1-2.2.44,4.93,4.93,0,0,1-2.25-.47,4.06,4.06,0,0,1-1.48-1.23,4.91,4.91,0,0,1-.81-1.78,8.49,8.49,0,0,1-.26-2.09v-5.64h1.76v5.64a7.14,7.14,0,0,0,.15,1.48,3.88,3.88,0,0,0,.5,1.27,2.79,2.79,0,0,0,.94.9A2.93,2.93,0,0,0,227.8,198.83Z"></path><path d="M243.11,190.76h-3.7v9.58h-1.77v-9.58h-3.71v-1.55h9.18Z"></path><path d="M253.74,189.21v11.13H252v-4.91h-5.61v4.91H244.6V189.21h1.76v4.65H252v-4.65Z"></path><path d="M260.87,200.42a4.87,4.87,0,0,1-2.17-.48,5.41,5.41,0,0,1-1.68-1.27,5.65,5.65,0,0,1-1.09-1.81,5.82,5.82,0,0,1-.39-2.09,5.89,5.89,0,0,1,1.53-3.93,5.51,5.51,0,0,1,1.69-1.25,5.11,5.11,0,0,1,2.14-.46,4.84,4.84,0,0,1,2.17.49,5.53,5.53,0,0,1,1.68,1.3,5.81,5.81,0,0,1,1.08,1.81,5.66,5.66,0,0,1,.39,2.06,5.92,5.92,0,0,1-.4,2.13,5.75,5.75,0,0,1-1.12,1.8A5.53,5.53,0,0,1,263,200,4.87,4.87,0,0,1,260.87,200.42Zm-3.54-5.65a4.57,4.57,0,0,0,.25,1.52,4.14,4.14,0,0,0,.71,1.31,3.65,3.65,0,0,0,1.12.9,3.25,3.25,0,0,0,1.48.33,3,3,0,0,0,1.49-.35,3.45,3.45,0,0,0,1.11-.93,4.38,4.38,0,0,0,.69-1.3,4.92,4.92,0,0,0,.23-1.48,4.53,4.53,0,0,0-.25-1.52,3.85,3.85,0,0,0-.71-1.29,3.55,3.55,0,0,0-1.11-.89,3.07,3.07,0,0,0-1.45-.34,3.2,3.2,0,0,0-1.51.35,3.55,3.55,0,0,0-1.11.92,4.24,4.24,0,0,0-.7,1.29A4.73,4.73,0,0,0,257.33,194.77Z"></path><path d="M268,200.34V189.21h4.85a3,3,0,0,1,1.38.31,3.47,3.47,0,0,1,1.09.83,3.84,3.84,0,0,1,.72,1.16,3.56,3.56,0,0,1,.25,1.32,3.69,3.69,0,0,1-.59,2,3.32,3.32,0,0,1-.69.76,3.07,3.07,0,0,1-.89.48l2.61,4.23h-2l-2.41-3.87h-2.57v3.87Zm1.76-5.43h3.07a1.39,1.39,0,0,0,.68-.16,1.63,1.63,0,0,0,.53-.45,2.49,2.49,0,0,0,.34-.67,2.36,2.36,0,0,0,.13-.8,2.15,2.15,0,0,0-.15-.8,2.4,2.4,0,0,0-.39-.66,1.86,1.86,0,0,0-.57-.44,1.41,1.41,0,0,0-.66-.17h-3Z"></path><path d="M278.39,200.34V189.21h1.76v11.13Z"></path><path d="M281.89,199l6.75-8.23H282v-1.55h8.66v1.35l-6.6,8.23h6.61v1.55h-8.82Z"></path><path d="M300.15,198.79v1.55h-7.64V189.21H300v1.55h-5.74v3.17h5v1.46h-5v3.4Z"></path><path d="M302,200.34V189.21h4a5.9,5.9,0,0,1,2.35.44,4.87,4.87,0,0,1,1.7,1.19,5.06,5.06,0,0,1,1,1.76,6.7,6.7,0,0,1,.35,2.16,6.4,6.4,0,0,1-.39,2.29,5.06,5.06,0,0,1-1.08,1.76,5,5,0,0,1-1.71,1.13,6.16,6.16,0,0,1-2.24.4Zm7.59-5.58a5.2,5.2,0,0,0-.24-1.62,3.41,3.41,0,0,0-.72-1.26,3.27,3.27,0,0,0-1.14-.82,3.73,3.73,0,0,0-1.53-.3h-2.2v8h2.2a3.79,3.79,0,0,0,1.55-.31,3.17,3.17,0,0,0,1.15-.85,3.65,3.65,0,0,0,.7-1.27A5.47,5.47,0,0,0,309.55,194.76Z"></path></g><g id="freepik--police-tape--inject-18"><rect x="149.49" y="211.56" width="12.87" height="171.16" transform="translate(-164.24 397.64) rotate(-79.74)" style="fill:#B5BFFB"></rect><polygon points="82.97 277.39 71.03 285.67 72.86 275.56 82.97 277.39" style="fill:#263238"></polygon><polygon points="102.13 280.86 87.18 291.23 76.94 289.38 91.89 279.01 102.13 280.86" style="fill:#263238"></polygon><polygon points="121.29 284.33 106.33 294.7 96.09 292.85 111.06 282.48 121.29 284.33" style="fill:#263238"></polygon><polygon points="140.45 287.8 125.5 298.17 115.26 296.31 130.21 285.94 140.45 287.8" style="fill:#263238"></polygon><polygon points="159.61 291.27 144.65 301.64 134.42 299.78 149.37 289.41 159.61 291.27" style="fill:#263238"></polygon><polygon points="178.77 294.74 163.81 305.11 153.58 303.25 168.53 292.88 178.77 294.74" style="fill:#263238"></polygon><polygon points="197.93 298.2 182.97 308.57 172.74 306.72 187.69 296.35 197.93 298.2" style="fill:#263238"></polygon><polygon points="217.09 301.67 202.13 312.04 191.9 310.19 206.86 299.82 217.09 301.67" style="fill:#263238"></polygon><polygon points="236.25 305.14 221.29 315.51 211.06 313.66 226.01 303.29 236.25 305.14" style="fill:#263238"></polygon><polygon points="240.59 309.94 239 318.72 230.21 317.13 240.59 309.94" style="fill:#263238"></polygon><rect x="70.35" y="290.71" width="171.16" height="12.87" transform="translate(-32.29 19.33) rotate(-6.43)" style="fill:#B5BFFB"></rect><path d="M74.3,305.93a.71.71,0,0,1,0,.32.66.66,0,0,1-.16.28,1,1,0,0,1-.25.21.63.63,0,0,1-.3.1.47.47,0,0,1-.4-.12.57.57,0,0,1-.2-.39.69.69,0,0,1,0-.32.85.85,0,0,1,.16-.28,1,1,0,0,1,.24-.21.88.88,0,0,1,.3-.1.48.48,0,0,1,.41.12A.57.57,0,0,1,74.3,305.93Z" style="fill:#263238"></path><path d="M78.32,303.31l1.6-.18a1.81,1.81,0,0,1,.78.05,1.41,1.41,0,0,1,.58.31,1.59,1.59,0,0,1,.37.51,2.14,2.14,0,0,1,.19.68,3.14,3.14,0,0,1-.08,1.11,2.55,2.55,0,0,1-.47.93,2.67,2.67,0,0,1-.78.67,2.76,2.76,0,0,1-1,.32l-1.61.18Zm1.24,3.47a1.18,1.18,0,0,0,.56-.2,1.34,1.34,0,0,0,.4-.42,1.54,1.54,0,0,0,.23-.56,1.77,1.77,0,0,0,0-.65,1.1,1.1,0,0,0-.29-.69.74.74,0,0,0-.66-.2l-.57.06L79,306.85Z" style="fill:#263238"></path><path d="M84.12,307.23a1.63,1.63,0,0,1-.74-.08,1.44,1.44,0,0,1-.58-.35,2,2,0,0,1-.39-.56,2.36,2.36,0,0,1-.19-.69,2.21,2.21,0,0,1,0-.68,3,3,0,0,1,.22-.66,2.65,2.65,0,0,1,.36-.6,2.58,2.58,0,0,1,.5-.49,2.28,2.28,0,0,1,.6-.36,2,2,0,0,1,.67-.18,1.63,1.63,0,0,1,.74.07,1.54,1.54,0,0,1,.57.36,1.87,1.87,0,0,1,.39.56,2.36,2.36,0,0,1,.19.69,2.33,2.33,0,0,1-.11,1,2.82,2.82,0,0,1-.49.92,2.76,2.76,0,0,1-.78.7A2.44,2.44,0,0,1,84.12,307.23Zm.1-1a1,1,0,0,0,.57-.22,1.41,1.41,0,0,0,.39-.45,2,2,0,0,0,.22-.57,2,2,0,0,0,0-.59,1.59,1.59,0,0,0-.1-.39,1,1,0,0,0-.18-.3.72.72,0,0,0-.29-.2.93.93,0,0,0-.38,0,1.2,1.2,0,0,0-.56.22,1.33,1.33,0,0,0-.4.45,1.82,1.82,0,0,0-.22.56,2,2,0,0,0,0,.59,1.59,1.59,0,0,0,.09.39,1,1,0,0,0,.19.31.72.72,0,0,0,.29.2A.68.68,0,0,0,84.22,306.28Z" style="fill:#263238"></path><path d="M88.77,302.13l.81-.09,1.64,2.48.25-2.69,1-.12-.45,4.58-.82.1L89.61,304l-.25,2.62-1,.11Z" style="fill:#263238"></path><path d="M94.78,306A1.63,1.63,0,0,1,94,306a1.56,1.56,0,0,1-.58-.35,1.92,1.92,0,0,1-.39-.57,2.2,2.2,0,0,1-.19-.69,2.23,2.23,0,0,1,0-.68,3.79,3.79,0,0,1,.21-.65,3.13,3.13,0,0,1,.37-.6,2.84,2.84,0,0,1,.49-.49,2.51,2.51,0,0,1,.61-.36,2,2,0,0,1,.67-.18,1.63,1.63,0,0,1,.74.07,1.54,1.54,0,0,1,.57.36,1.87,1.87,0,0,1,.39.56,2.36,2.36,0,0,1,.19.69,2.33,2.33,0,0,1-.11,1,3,3,0,0,1-.49.92,2.76,2.76,0,0,1-.78.7A2.44,2.44,0,0,1,94.78,306Zm.1-.95a1.1,1.1,0,0,0,.57-.22,1.41,1.41,0,0,0,.39-.45,2.32,2.32,0,0,0,.22-.57,2,2,0,0,0,0-.59,1.59,1.59,0,0,0-.1-.39,1.05,1.05,0,0,0-.18-.31.81.81,0,0,0-.29-.19.78.78,0,0,0-.38,0,1.2,1.2,0,0,0-.56.22,1.4,1.4,0,0,0-.4.44,1.9,1.9,0,0,0-.25,1.16,1.59,1.59,0,0,0,.09.39,1,1,0,0,0,.19.31.66.66,0,0,0,.29.2A.67.67,0,0,0,94.88,305.08Z" style="fill:#263238"></path><path d="M98.43,302l-1.28.15.09-.93,3.58-.41-.08.93-1.28.15-.36,3.65-1,.12Z" style="fill:#263238"></path><path d="M104.09,305a1.54,1.54,0,0,1-.72-.08,1.85,1.85,0,0,1-.58-.37,2.11,2.11,0,0,1-.39-.58,2.36,2.36,0,0,1-.19-.69,2.3,2.3,0,0,1,0-.64,2.94,2.94,0,0,1,.19-.64,3.27,3.27,0,0,1,.35-.59,3.24,3.24,0,0,1,.48-.5,2.92,2.92,0,0,1,.61-.37,2.19,2.19,0,0,1,.72-.19,1.61,1.61,0,0,1,1,.16,1.22,1.22,0,0,1,.59.64l-.85.66a.74.74,0,0,0-.14-.28.7.7,0,0,0-.47-.24h-.27a1.1,1.1,0,0,0-.56.22,1.33,1.33,0,0,0-.4.45,1.8,1.8,0,0,0-.21.56,1.85,1.85,0,0,0,0,.57,1.24,1.24,0,0,0,.1.4,1.13,1.13,0,0,0,.19.32.84.84,0,0,0,.29.2.74.74,0,0,0,.37,0l.27-.06a1.74,1.74,0,0,0,.27-.14,1.27,1.27,0,0,0,.25-.22,1.08,1.08,0,0,0,.19-.31l.8.41a1.58,1.58,0,0,1-.33.48,2.5,2.5,0,0,1-.47.39,3.11,3.11,0,0,1-.55.27A2.91,2.91,0,0,1,104.09,305Z" style="fill:#263238"></path><path d="M106.41,304.68l.45-4.59,1.92-.21a1,1,0,0,1,.49.05,1.36,1.36,0,0,1,.38.24,1.7,1.7,0,0,1,.26.38,1.51,1.51,0,0,1,.13.46,1.85,1.85,0,0,1,0,.47,2.51,2.51,0,0,1-.16.46,2.57,2.57,0,0,1-.26.41,1.89,1.89,0,0,1-.37.32l.77,1.6-1.17.13-.66-1.38-.58.06-.14,1.48Zm2.13-2.62a.36.36,0,0,0,.18-.08.65.65,0,0,0,.15-.18.74.74,0,0,0,.1-.26,1,1,0,0,0,0-.3.55.55,0,0,0-.12-.33.28.28,0,0,0-.23-.1l-.83.1-.12,1.25Z" style="fill:#263238"></path><path d="M112.36,304.05a1.63,1.63,0,0,1-.74-.08,1.7,1.7,0,0,1-.58-.35,1.92,1.92,0,0,1-.39-.57,2.2,2.2,0,0,1-.19-.69,2.23,2.23,0,0,1,0-.68,3.79,3.79,0,0,1,.21-.65,3.13,3.13,0,0,1,.37-.6,2.9,2.9,0,0,1,.49-.5,2.84,2.84,0,0,1,.61-.35,2.23,2.23,0,0,1,.67-.19,1.63,1.63,0,0,1,.74.08,1.54,1.54,0,0,1,.57.36,1.87,1.87,0,0,1,.39.56,2.31,2.31,0,0,1,.08,1.7,3,3,0,0,1-.49.92,2.76,2.76,0,0,1-.78.7A2.44,2.44,0,0,1,112.36,304.05Zm.1-.95a1.1,1.1,0,0,0,.57-.22,1.67,1.67,0,0,0,.39-.45,2.32,2.32,0,0,0,.22-.57,2,2,0,0,0,0-.59,1.59,1.59,0,0,0-.1-.39,1.05,1.05,0,0,0-.18-.31.81.81,0,0,0-.29-.19.78.78,0,0,0-.38,0,1.1,1.1,0,0,0-.56.22,1.4,1.4,0,0,0-.4.44,1.9,1.9,0,0,0-.25,1.16,1.59,1.59,0,0,0,.09.39,1.08,1.08,0,0,0,.19.31.75.75,0,0,0,.29.2A.77.77,0,0,0,112.46,303.1Z" style="fill:#263238"></path><path d="M116.64,303.58a3,3,0,0,1-.94-.05,2.36,2.36,0,0,1-.83-.32l.54-1a.55.55,0,0,0,.14.1,1.4,1.4,0,0,0,.3.15,2.13,2.13,0,0,0,.42.11,1.55,1.55,0,0,0,.48,0,.69.69,0,0,0,.42-.16.39.39,0,0,0,.09-.3.26.26,0,0,0-.09-.17.52.52,0,0,0-.21-.11,1.66,1.66,0,0,0-.29-.09l-.36-.07a1.94,1.94,0,0,1-.72-.31.79.79,0,0,1-.29-.57,1.63,1.63,0,0,1,.08-.74,1.69,1.69,0,0,1,.37-.59,1.82,1.82,0,0,1,.58-.4,2.09,2.09,0,0,1,.7-.2,2.17,2.17,0,0,1,.44,0l.4.07.36.12.3.15-.54.93a.39.39,0,0,0-.11-.09l-.25-.12a3,3,0,0,0-.35-.09,1.59,1.59,0,0,0-.38,0,.7.7,0,0,0-.4.17.41.41,0,0,0-.11.34.3.3,0,0,0,.23.25,3.29,3.29,0,0,0,.58.14l.45.12a1.59,1.59,0,0,1,.37.18.92.92,0,0,1,.25.27,1.11,1.11,0,0,1,.12.4,1.51,1.51,0,0,1-.08.78,1.45,1.45,0,0,1-.39.55,1.81,1.81,0,0,1-.6.36A3.22,3.22,0,0,1,116.64,303.58Z" style="fill:#263238"></path><path d="M120.38,303.15a2.7,2.7,0,0,1-.94,0,2.36,2.36,0,0,1-.83-.32l.54-1a.55.55,0,0,0,.14.1,1.4,1.4,0,0,0,.3.15,3.16,3.16,0,0,0,.42.11,1.52,1.52,0,0,0,.48,0,.75.75,0,0,0,.42-.16.39.39,0,0,0,.09-.3.26.26,0,0,0-.09-.17.68.68,0,0,0-.21-.12l-.29-.08-.36-.07a1.87,1.87,0,0,1-.72-.31.79.79,0,0,1-.29-.57,1.5,1.5,0,0,1,.08-.74,1.56,1.56,0,0,1,.37-.59,1.82,1.82,0,0,1,.58-.4,2.09,2.09,0,0,1,.7-.2,2.16,2.16,0,0,1,.44,0l.4.07a3,3,0,0,1,.36.12l.3.15-.54.93a.39.39,0,0,0-.11-.09l-.25-.12a3,3,0,0,0-.35-.09,1.2,1.2,0,0,0-.38,0,.67.67,0,0,0-.4.17.41.41,0,0,0-.11.34.3.3,0,0,0,.23.25,4.52,4.52,0,0,0,.58.14l.45.12a1.82,1.82,0,0,1,.37.18.81.81,0,0,1,.25.27,1.11,1.11,0,0,1,.12.4,1.62,1.62,0,0,1-.08.78,1.45,1.45,0,0,1-.39.55,1.81,1.81,0,0,1-.6.36A2.69,2.69,0,0,1,120.38,303.15Z" style="fill:#263238"></path><path d="M125.65,300.14a.85.85,0,0,1,0,.32,1,1,0,0,1-.16.28.82.82,0,0,1-.25.21.71.71,0,0,1-.3.1.49.49,0,0,1-.41-.12.56.56,0,0,1-.19-.39.7.7,0,0,1,0-.32,1,1,0,0,1,.16-.28,1,1,0,0,1,.25-.21,1,1,0,0,1,.3-.1.53.53,0,0,1,.41.12A.61.61,0,0,1,125.65,300.14Z" style="fill:#263238"></path><path d="M129.67,297.52l1.61-.18a2.13,2.13,0,0,1,.77.05,1.54,1.54,0,0,1,.58.31,1.56,1.56,0,0,1,.38.52,2.36,2.36,0,0,1,.18.67,3.19,3.19,0,0,1-.08,1.12,2.55,2.55,0,0,1-.47.93,2.5,2.5,0,0,1-.78.66,2.71,2.71,0,0,1-1,.33l-1.6.18Zm1.24,3.48a1.3,1.3,0,0,0,.56-.2,1.37,1.37,0,0,0,.41-.42,2,2,0,0,0,.25-1.22,1.15,1.15,0,0,0-.29-.69.77.77,0,0,0-.66-.2l-.57.07-.26,2.72Z" style="fill:#263238"></path><path d="M135.5,301.44a1.78,1.78,0,0,1-.74-.07,1.58,1.58,0,0,1-.58-.36,2,2,0,0,1-.39-.56,2.36,2.36,0,0,1-.19-.69,1.94,1.94,0,0,1,0-.68,2.54,2.54,0,0,1,.21-.66,2.65,2.65,0,0,1,.36-.6,2.58,2.58,0,0,1,.5-.49,2.28,2.28,0,0,1,.6-.36,2,2,0,0,1,.67-.18,1.63,1.63,0,0,1,.74.07,1.54,1.54,0,0,1,.57.36,1.87,1.87,0,0,1,.39.56,2.36,2.36,0,0,1,.19.69,2.33,2.33,0,0,1-.11,1,2.82,2.82,0,0,1-.49.92,2.76,2.76,0,0,1-.78.7A2.44,2.44,0,0,1,135.5,301.44Zm.1-.95a1,1,0,0,0,.57-.22,1.41,1.41,0,0,0,.39-.45,2,2,0,0,0,.22-.57,2,2,0,0,0,0-.59,1.59,1.59,0,0,0-.1-.39,1,1,0,0,0-.18-.3.72.72,0,0,0-.29-.2.93.93,0,0,0-.38,0,1.2,1.2,0,0,0-.56.22,1.33,1.33,0,0,0-.4.45,2.11,2.11,0,0,0-.22.56,2,2,0,0,0,0,.59,2.23,2.23,0,0,0,.09.39,1,1,0,0,0,.19.31.72.72,0,0,0,.29.2A.68.68,0,0,0,135.6,300.49Z" style="fill:#263238"></path><path d="M140.14,296.34l.81-.09,1.64,2.48.25-2.69,1-.12-.45,4.59-.82.09L141,298.19l-.25,2.62-1,.12Z" style="fill:#263238"></path><path d="M146.16,300.24a1.83,1.83,0,0,1-.75-.07,1.54,1.54,0,0,1-.57-.36,1.85,1.85,0,0,1-.4-.56,2.34,2.34,0,0,1-.18-.69,2.21,2.21,0,0,1,0-.68,2.54,2.54,0,0,1,.21-.66,3.13,3.13,0,0,1,.37-.6,2.84,2.84,0,0,1,.49-.49,2.65,2.65,0,0,1,.6-.36,2,2,0,0,1,.68-.18,1.59,1.59,0,0,1,.73.07,1.5,1.5,0,0,1,.58.36,1.87,1.87,0,0,1,.39.56,2.36,2.36,0,0,1,.19.69,2.5,2.5,0,0,1-.11,1,3,3,0,0,1-.49.92,3.06,3.06,0,0,1-.78.7A2.44,2.44,0,0,1,146.16,300.24Zm.09-.95a1,1,0,0,0,.57-.22,1.58,1.58,0,0,0,.4-.45,1.77,1.77,0,0,0,.21-.57,1.48,1.48,0,0,0,0-.59,1.24,1.24,0,0,0-.09-.39,1,1,0,0,0-.19-.3.69.69,0,0,0-.28-.2.93.93,0,0,0-.38,0,1.2,1.2,0,0,0-.57.22,1.58,1.58,0,0,0-.4.45,1.8,1.8,0,0,0-.21.56,1.71,1.71,0,0,0,0,.59,1.24,1.24,0,0,0,.09.39,1,1,0,0,0,.19.31.69.69,0,0,0,.28.2A.68.68,0,0,0,146.25,299.29Z" style="fill:#263238"></path><path d="M149.82,296.17l-1.28.15.09-.93,3.59-.41-.09.93-1.27.15-.36,3.65-1,.12Z" style="fill:#263238"></path><path d="M155.47,299.19a1.59,1.59,0,0,1-.73-.08,1.93,1.93,0,0,1-.57-.37,2.11,2.11,0,0,1-.39-.58,2.36,2.36,0,0,1-.19-.69,2.3,2.3,0,0,1,0-.64,2.94,2.94,0,0,1,.19-.64,2.78,2.78,0,0,1,.35-.59,3.24,3.24,0,0,1,.48-.5,2.92,2.92,0,0,1,.61-.37,2.13,2.13,0,0,1,.72-.19,1.61,1.61,0,0,1,1,.16,1.27,1.27,0,0,1,.59.64l-.85.66a.74.74,0,0,0-.14-.28.87.87,0,0,0-.22-.17.72.72,0,0,0-.25-.07h-.27a1.24,1.24,0,0,0-.57.22,1.41,1.41,0,0,0-.39.45,1.8,1.8,0,0,0-.21.56,1.59,1.59,0,0,0,0,.57,1.24,1.24,0,0,0,.09.4,1.16,1.16,0,0,0,.2.32.84.84,0,0,0,.29.2.74.74,0,0,0,.37,0l.27-.06a1.74,1.74,0,0,0,.27-.14,1.27,1.27,0,0,0,.25-.22,1.08,1.08,0,0,0,.19-.31l.8.41a1.76,1.76,0,0,1-.33.49,3,3,0,0,1-.48.38,2.73,2.73,0,0,1-.54.27A2.91,2.91,0,0,1,155.47,299.19Z" style="fill:#263238"></path><path d="M157.77,298.89l.45-4.58,1.92-.22a1.12,1.12,0,0,1,.49.05,1.05,1.05,0,0,1,.37.25,1.31,1.31,0,0,1,.27.38,1.39,1.39,0,0,1,.1.92,1.9,1.9,0,0,1-.15.46,2.07,2.07,0,0,1-.27.41,1.63,1.63,0,0,1-.36.33l.76,1.6-1.16.13-.66-1.39-.58.06-.14,1.48Zm2.13-2.62a.29.29,0,0,0,.18-.08.45.45,0,0,0,.15-.18.67.67,0,0,0,.1-.26,1,1,0,0,0,0-.3.58.58,0,0,0-.12-.32.26.26,0,0,0-.23-.1l-.83.09-.12,1.25Z" style="fill:#263238"></path><path d="M163.76,298.25a1.63,1.63,0,0,1-.74-.07,1.66,1.66,0,0,1-.58-.36,1.76,1.76,0,0,1-.39-.56,2.2,2.2,0,0,1-.19-.69,2.55,2.55,0,0,1,.24-1.33,3.29,3.29,0,0,1,.36-.6,2.88,2.88,0,0,1,1.1-.86,2.52,2.52,0,0,1,.68-.18,1.6,1.6,0,0,1,.73.08,1.66,1.66,0,0,1,.58.36,1.73,1.73,0,0,1,.38.56,2.09,2.09,0,0,1,.19.69,2.34,2.34,0,0,1-.1,1,3.26,3.26,0,0,1-.49.92,3,3,0,0,1-.78.69A2.34,2.34,0,0,1,163.76,298.25Zm.1-.94a1.1,1.1,0,0,0,.57-.22,1.67,1.67,0,0,0,.39-.45,1.9,1.9,0,0,0,.25-1.16,1.59,1.59,0,0,0-.09-.39,1.08,1.08,0,0,0-.19-.31.77.77,0,0,0-.28-.19.83.83,0,0,0-.39,0,1.1,1.1,0,0,0-.56.22,1.53,1.53,0,0,0-.4.44,2.18,2.18,0,0,0-.22.57,2,2,0,0,0,0,.59,1.59,1.59,0,0,0,.1.39.89.89,0,0,0,.19.31.72.72,0,0,0,.28.2A.78.78,0,0,0,163.86,297.31Z" style="fill:#263238"></path><path d="M168,297.79a3.3,3.3,0,0,1-.94,0,2.45,2.45,0,0,1-.83-.33l.54-1a.49.49,0,0,0,.14.11,2.12,2.12,0,0,0,.72.25,1.55,1.55,0,0,0,.48,0,.69.69,0,0,0,.42-.16.39.39,0,0,0,.09-.3.26.26,0,0,0-.09-.17.52.52,0,0,0-.21-.11l-.29-.09-.36-.07a2,2,0,0,1-.72-.31.79.79,0,0,1-.29-.57,1.63,1.63,0,0,1,.08-.74,1.79,1.79,0,0,1,.37-.59,2.21,2.21,0,0,1,1.28-.6,1.62,1.62,0,0,1,.44,0,2.4,2.4,0,0,1,.4.06l.36.12.3.15-.54.93a.28.28,0,0,0-.11-.09l-.25-.11a1.79,1.79,0,0,0-.35-.1,1.15,1.15,0,0,0-.37,0,.64.64,0,0,0-.4.16.41.41,0,0,0-.12.34.3.3,0,0,0,.23.25,4.27,4.27,0,0,0,.58.15l.46.11a1.51,1.51,0,0,1,.36.18,1.06,1.06,0,0,1,.25.27.82.82,0,0,1,.12.4,1.51,1.51,0,0,1-.08.78,1.49,1.49,0,0,1-.39.56,1.85,1.85,0,0,1-.59.35A3.48,3.48,0,0,1,168,297.79Z" style="fill:#263238"></path><path d="M171.78,297.36a3,3,0,0,1-.95,0A2.44,2.44,0,0,1,170,297l.55-1a.42.42,0,0,0,.13.1,1.8,1.8,0,0,0,.31.15,3.44,3.44,0,0,0,.41.11,1.93,1.93,0,0,0,.48,0,.69.69,0,0,0,.42-.16.38.38,0,0,0,.1-.3.28.28,0,0,0-.09-.18,1,1,0,0,0-.21-.11l-.3-.08-.36-.08a1.86,1.86,0,0,1-.72-.3.83.83,0,0,1-.29-.57,1.56,1.56,0,0,1,.09-.75,1.48,1.48,0,0,1,.37-.58,2,2,0,0,1,.57-.41,2.21,2.21,0,0,1,.7-.19,2.17,2.17,0,0,1,.44,0l.41.07a2.06,2.06,0,0,1,.35.12l.3.15-.53.92-.12-.08a1.47,1.47,0,0,0-.25-.12,1.69,1.69,0,0,0-.34-.09,1.22,1.22,0,0,0-.38,0,.65.65,0,0,0-.4.17.38.38,0,0,0-.11.34.3.3,0,0,0,.22.25,4.52,4.52,0,0,0,.58.14,2.8,2.8,0,0,1,.46.12,1.51,1.51,0,0,1,.36.18.84.84,0,0,1,.26.27,1.11,1.11,0,0,1,.12.4,1.59,1.59,0,0,1-.09.77,1.41,1.41,0,0,1-.39.56,2.08,2.08,0,0,1-.59.36A2.8,2.8,0,0,1,171.78,297.36Z" style="fill:#263238"></path><path d="M177.05,294.35a.69.69,0,0,1,0,.32.78.78,0,0,1-.16.28.72.72,0,0,1-.25.21.71.71,0,0,1-.3.1.49.49,0,0,1-.41-.12.61.61,0,0,1-.19-.39.69.69,0,0,1,0-.32.78.78,0,0,1,.16-.28,1.21,1.21,0,0,1,.24-.21.76.76,0,0,1,.3-.1.49.49,0,0,1,.41.12A.62.62,0,0,1,177.05,294.35Z" style="fill:#263238"></path><path d="M181.07,291.73l1.6-.18a2.19,2.19,0,0,1,.78.05,1.49,1.49,0,0,1,.57.31,1.43,1.43,0,0,1,.38.52,2.27,2.27,0,0,1,.18.67,2.78,2.78,0,0,1-.08,1.12,2.61,2.61,0,0,1-.46.93,2.5,2.5,0,0,1-.78.66,2.76,2.76,0,0,1-1,.33l-1.6.18Zm1.24,3.48a1.3,1.3,0,0,0,.56-.2,1.46,1.46,0,0,0,.4-.42,1.8,1.8,0,0,0,.23-.57,2.35,2.35,0,0,0,0-.65,1.21,1.21,0,0,0-.29-.69.78.78,0,0,0-.66-.2l-.57.07-.27,2.72Z" style="fill:#263238"></path><path d="M186.86,295.65a1.66,1.66,0,0,1-.75-.07,1.54,1.54,0,0,1-.57-.36,1.63,1.63,0,0,1-.4-.56A2.72,2.72,0,0,1,185,294a2.59,2.59,0,0,1,0-.68,2.67,2.67,0,0,1,.21-.66,3.58,3.58,0,0,1,.36-.59,3,3,0,0,1,.5-.5,3.67,3.67,0,0,1,.6-.36,2.62,2.62,0,0,1,.68-.18,1.59,1.59,0,0,1,.73.08,1.61,1.61,0,0,1,.58.35,1.92,1.92,0,0,1,.39.57,2.36,2.36,0,0,1,.19.69,2.45,2.45,0,0,1-.11,1,2.81,2.81,0,0,1-.49.92,3.06,3.06,0,0,1-.78.7A2.3,2.3,0,0,1,186.86,295.65Zm.09-.94a1.2,1.2,0,0,0,.57-.22,1.9,1.9,0,0,0,.4-.45,2,2,0,0,0,.21-.57,1.76,1.76,0,0,0,0-.6,1.24,1.24,0,0,0-.09-.38,1.08,1.08,0,0,0-.19-.31.67.67,0,0,0-.28-.19.68.68,0,0,0-.38,0,1,1,0,0,0-.57.22,1.68,1.68,0,0,0-.4.44,1.77,1.77,0,0,0-.21.57,1.7,1.7,0,0,0,0,.59,1.59,1.59,0,0,0,.1.39,1.08,1.08,0,0,0,.19.31.8.8,0,0,0,.28.2A.78.78,0,0,0,187,294.71Z" style="fill:#263238"></path><path d="M191.51,290.55l.81-.09,1.64,2.48.26-2.69,1-.12-.44,4.59-.82.09-1.64-2.41L192.1,295l-1,.12Z" style="fill:#263238"></path><path d="M197.54,294.45a1.63,1.63,0,0,1-.74-.08,1.56,1.56,0,0,1-.58-.35,2,2,0,0,1-.39-.56,2.36,2.36,0,0,1-.19-.69,2,2,0,0,1,0-.69,2.6,2.6,0,0,1,.21-.65,3.08,3.08,0,0,1,.36-.6,2.9,2.9,0,0,1,.5-.49,2.28,2.28,0,0,1,.6-.36,2,2,0,0,1,.67-.18,1.63,1.63,0,0,1,.74.07,1.54,1.54,0,0,1,.57.36,1.87,1.87,0,0,1,.39.56,2.36,2.36,0,0,1,.19.69,2.49,2.49,0,0,1-.1,1,3.26,3.26,0,0,1-.49.92,3,3,0,0,1-.79.7A2.44,2.44,0,0,1,197.54,294.45Zm.1-.95a1.1,1.1,0,0,0,.57-.22,1.41,1.41,0,0,0,.39-.45,1.9,1.9,0,0,0,.25-1.16,2.23,2.23,0,0,0-.09-.39,1,1,0,0,0-.19-.3.66.66,0,0,0-.29-.2.91.91,0,0,0-.38,0,1.2,1.2,0,0,0-.56.22,1.33,1.33,0,0,0-.4.45,2.11,2.11,0,0,0-.22.56,2,2,0,0,0,0,.59,1.59,1.59,0,0,0,.1.39.94.94,0,0,0,.18.31.72.72,0,0,0,.29.2A.68.68,0,0,0,197.64,293.5Z" style="fill:#263238"></path><path d="M201.19,290.38l-1.28.15.09-.93,3.59-.41-.09.93-1.27.15-.36,3.65-1,.12Z" style="fill:#263238"></path><path d="M206.86,293.4a1.59,1.59,0,0,1-.73-.08,1.7,1.7,0,0,1-.57-.37,2.11,2.11,0,0,1-.39-.58,2.08,2.08,0,0,1-.19-.7,1.92,1.92,0,0,1,0-.63,2.47,2.47,0,0,1,.19-.64,2.91,2.91,0,0,1,.34-.59,3.31,3.31,0,0,1,.49-.5,2.68,2.68,0,0,1,.61-.37,2.4,2.4,0,0,1,.72-.2,1.75,1.75,0,0,1,1,.16,1.33,1.33,0,0,1,.59.65l-.85.66a.92.92,0,0,0-.15-.28.68.68,0,0,0-.21-.17.77.77,0,0,0-.26-.07h-.26a1.1,1.1,0,0,0-.57.22,1.41,1.41,0,0,0-.39.45,2.11,2.11,0,0,0-.22.56,1.85,1.85,0,0,0,0,.57,1.56,1.56,0,0,0,.1.4,1.16,1.16,0,0,0,.2.32.8.8,0,0,0,.28.2.77.77,0,0,0,.37,0,1.31,1.31,0,0,0,.27-.06,1.47,1.47,0,0,0,.28-.14,1.64,1.64,0,0,0,.25-.22,1.35,1.35,0,0,0,.19-.31l.8.41a1.61,1.61,0,0,1-.34.48,2.5,2.5,0,0,1-.47.39,2.73,2.73,0,0,1-.54.27A3.1,3.1,0,0,1,206.86,293.4Z" style="fill:#263238"></path><path d="M209.17,293.1l.45-4.59,1.92-.21a1.06,1.06,0,0,1,.48.05,1.09,1.09,0,0,1,.38.25,1.26,1.26,0,0,1,.27.37,1.49,1.49,0,0,1,.12.46,1.47,1.47,0,0,1,0,.47,1.9,1.9,0,0,1-.15.46,2.07,2.07,0,0,1-.27.41,1.59,1.59,0,0,1-.36.32l.76,1.6-1.16.14-.66-1.39-.58.06-.14,1.48Zm2.13-2.62a.29.29,0,0,0,.18-.08.65.65,0,0,0,.15-.18,1,1,0,0,0,.1-.26,1,1,0,0,0,0-.3.56.56,0,0,0-.13-.32.24.24,0,0,0-.22-.11l-.83.1-.12,1.25Z" style="fill:#263238"></path><path d="M215.12,292.47a1.65,1.65,0,0,1-1.32-.43,1.92,1.92,0,0,1-.39-.57,2.2,2.2,0,0,1-.19-.69,2.55,2.55,0,0,1,.24-1.33,3.67,3.67,0,0,1,.36-.6,2.9,2.9,0,0,1,.5-.49,2.28,2.28,0,0,1,.6-.36,2,2,0,0,1,.68-.18,1.6,1.6,0,0,1,.73.07,1.66,1.66,0,0,1,.58.36,1.85,1.85,0,0,1,.38.56,2.09,2.09,0,0,1,.19.69,2.33,2.33,0,0,1-.1,1,3.26,3.26,0,0,1-.49.92,3.06,3.06,0,0,1-.78.7A2.48,2.48,0,0,1,215.12,292.47Zm.1-1a1.1,1.1,0,0,0,.57-.22,1.67,1.67,0,0,0,.39-.45,1.9,1.9,0,0,0,.25-1.16,1.59,1.59,0,0,0-.09-.39,1.08,1.08,0,0,0-.19-.31.77.77,0,0,0-.28-.19.83.83,0,0,0-.39,0,1.1,1.1,0,0,0-.56.22,1.53,1.53,0,0,0-.4.44,2.32,2.32,0,0,0-.22.57,2,2,0,0,0,0,.59,1.59,1.59,0,0,0,.1.39.81.81,0,0,0,.19.31.72.72,0,0,0,.28.2A.78.78,0,0,0,215.22,291.52Z" style="fill:#263238"></path><path d="M219.4,292a3.37,3.37,0,0,1-1,0,2.32,2.32,0,0,1-.82-.33l.54-1a.39.39,0,0,0,.13.11,2.33,2.33,0,0,0,.31.14,2.13,2.13,0,0,0,.42.11,1.52,1.52,0,0,0,.48,0,.63.63,0,0,0,.41-.16.36.36,0,0,0,.1-.3.26.26,0,0,0-.09-.17.52.52,0,0,0-.21-.11l-.3-.08-.35-.08a1.87,1.87,0,0,1-.72-.31.8.8,0,0,1-.3-.57,1.5,1.5,0,0,1,.09-.74,1.64,1.64,0,0,1,.37-.59,1.87,1.87,0,0,1,.58-.4,2.1,2.1,0,0,1,.69-.2,1.69,1.69,0,0,1,.45,0,2.57,2.57,0,0,1,.4.06l.35.12.3.15-.53.93a.39.39,0,0,0-.11-.09l-.26-.11a1.52,1.52,0,0,0-.34-.1,1.21,1.21,0,0,0-.38,0,.67.67,0,0,0-.4.16.38.38,0,0,0-.11.34.28.28,0,0,0,.23.25,4.07,4.07,0,0,0,.57.15,4.46,4.46,0,0,1,.46.11,1.82,1.82,0,0,1,.37.18,1.27,1.27,0,0,1,.25.27,1.11,1.11,0,0,1,.12.4,1.62,1.62,0,0,1-.09.78,1.49,1.49,0,0,1-.39.56,1.74,1.74,0,0,1-.59.35A2.71,2.71,0,0,1,219.4,292Z" style="fill:#263238"></path><path d="M223.13,291.58a3.3,3.3,0,0,1-.94,0,2.45,2.45,0,0,1-.83-.33l.54-1a.49.49,0,0,0,.14.11,2.15,2.15,0,0,0,.3.14,2.58,2.58,0,0,0,.42.11,1.55,1.55,0,0,0,.48,0,.69.69,0,0,0,.42-.16.35.35,0,0,0,.09-.3.26.26,0,0,0-.09-.17.55.55,0,0,0-.2-.11l-.3-.09-.36-.07a2,2,0,0,1-.72-.31.83.83,0,0,1-.29-.57,1.63,1.63,0,0,1,.08-.74,1.79,1.79,0,0,1,.37-.59,2.21,2.21,0,0,1,1.28-.6,1.62,1.62,0,0,1,.44,0,2.4,2.4,0,0,1,.4.06l.36.12.3.15-.53.93a.35.35,0,0,0-.12-.09l-.25-.11a1.69,1.69,0,0,0-.34-.1,1.22,1.22,0,0,0-.38,0,.64.64,0,0,0-.4.16.38.38,0,0,0-.11.34.29.29,0,0,0,.22.25,3.29,3.29,0,0,0,.58.14l.46.12a1.51,1.51,0,0,1,.36.18.91.91,0,0,1,.25.27.82.82,0,0,1,.12.4,1.51,1.51,0,0,1-.08.78,1.49,1.49,0,0,1-.39.56,1.85,1.85,0,0,1-.59.35A3.48,3.48,0,0,1,223.13,291.58Z" style="fill:#263238"></path><path d="M228.41,288.56a.69.69,0,0,1,0,.32.85.85,0,0,1-.16.28.72.72,0,0,1-.25.21.91.91,0,0,1-.3.11.54.54,0,0,1-.41-.13.61.61,0,0,1-.19-.39.7.7,0,0,1,0-.32,1.56,1.56,0,0,1,.16-.28,1,1,0,0,1,.25-.2.63.63,0,0,1,.3-.1.53.53,0,0,1,.41.11A.56.56,0,0,1,228.41,288.56Z" style="fill:#263238"></path><path d="M232.44,285.94l1.6-.18a2.11,2.11,0,0,1,.77.05,1.54,1.54,0,0,1,.58.31,1.43,1.43,0,0,1,.38.52,2.36,2.36,0,0,1,.18.67,3,3,0,0,1-.08,1.12,2.51,2.51,0,0,1-1.25,1.59,2.71,2.71,0,0,1-1,.33l-1.6.18Zm1.24,3.48a1.34,1.34,0,0,0,.56-.2,1.46,1.46,0,0,0,.4-.42,1.8,1.8,0,0,0,.23-.57,2.35,2.35,0,0,0,0-.65,1.16,1.16,0,0,0-.3-.69.76.76,0,0,0-.65-.2l-.57.07-.27,2.72Z" style="fill:#263238"></path><path d="M238.24,289.86a1.63,1.63,0,0,1-.74-.07,1.54,1.54,0,0,1-.57-.36,1.74,1.74,0,0,1-.4-.56,2.36,2.36,0,0,1-.19-.69,2.59,2.59,0,0,1,0-.68,2.67,2.67,0,0,1,.21-.66,3.21,3.21,0,0,1,.36-.59,3,3,0,0,1,.5-.5,3.67,3.67,0,0,1,.6-.36,2.62,2.62,0,0,1,.68-.18,1.6,1.6,0,0,1,.73.08,1.7,1.7,0,0,1,.58.35,1.92,1.92,0,0,1,.39.57,2.36,2.36,0,0,1,.18.68,2.31,2.31,0,0,1-.1,1,2.81,2.81,0,0,1-.49.92,3.06,3.06,0,0,1-.78.7A2.29,2.29,0,0,1,238.24,289.86Zm.1-.94a1.11,1.11,0,0,0,.57-.23,1.41,1.41,0,0,0,.39-.45,1.58,1.58,0,0,0,.22-.57,2,2,0,0,0,0-.59,1.18,1.18,0,0,0-.09-.38,1.08,1.08,0,0,0-.19-.31.67.67,0,0,0-.28-.19.68.68,0,0,0-.38,0,1,1,0,0,0-.57.22,1.53,1.53,0,0,0-.4.44,1.77,1.77,0,0,0-.21.57,1.7,1.7,0,0,0,0,.59,1.59,1.59,0,0,0,.1.39,1.08,1.08,0,0,0,.19.31.7.7,0,0,0,.28.19A.78.78,0,0,0,238.34,288.92Z" style="fill:#263238"></path><rect x="67.5" y="272.91" width="6.23" height="146.46" style="fill:#a6a6a6"></rect><polygon points="95.92 424.09 45.31 424.09 67.49 419.37 73.73 419.37 95.92 424.09" style="fill:#a6a6a6"></polygon><rect x="236.98" y="272.91" width="6.23" height="146.46" style="fill:#a6a6a6"></rect><polygon points="265.4 424.09 214.79 424.09 236.98 419.37 243.22 419.37 265.4 424.09" style="fill:#a6a6a6"></polygon></g><g id="freepik--Floor--inject-18"><polygon points="45.17 424.08 96.37 423.84 147.58 423.75 250 423.58 352.42 423.75 403.63 423.84 454.83 424.08 403.63 424.32 352.42 424.41 250 424.58 147.58 424.41 96.37 424.32 45.17 424.08" style="fill:#263238"></polygon></g><g id="freepik--Light--inject-18"><circle cx="362.31" cy="245.03" r="105.23" transform="translate(-67.15 327.96) rotate(-45)" style="fill:#B5BFFB;opacity:0.2"></circle></g><g id="freepik--Lightings--inject-18"><polygon points="406.71 155.33 415.72 142.42 420.15 146.93 428.27 137.2 432.91 142.06 419.74 150.54 416.21 146.14 406.71 155.33" style="fill:#455a64"></polygon><polygon points="403.84 162.51 416.27 159.73 416.27 163.7 425.3 164.31 425.38 168.55 413.27 166.35 414.23 162.48 403.84 162.51" style="fill:#455a64"></polygon><polygon points="399.68 155.32 398.76 143.37 403.02 143.89 402.93 134.14 407.67 133.63 404.98 146.25 401.19 145.54 399.68 155.32" style="fill:#455a64"></polygon></g></svg>