<svg xmlns="http://www.w3.org/2000/svg" viewBox="0 0 500 500"><g id="freepik--background-complete--inject-54"><path d="M433.65,315.22l-13.12.28-6.66.11c-2.23.05-4.47,0-6.7.06h-.44v-.45L406.67,304v-.5h.5l13.24.06c4.42,0,8.83.11,13.24.16h.28V304c0,1.9-.09,3.79-.13,5.66Zm0,0-.14-5.65c0-1.86-.11-3.7-.13-5.54l.27.28c-4.41.05-8.82.16-13.24.16l-13.24.06.5-.5-.05,11.19-.45-.44c2.18,0,4.36,0,6.55.05l6.58.12Z" style="fill:#ebebeb"></path><path d="M418.88,329.33l-13.12.28-6.66.11c-2.23,0-4.47,0-6.7.06H392v-.45l-.06-11.19v-.5h.5l13.24.07c4.42,0,8.83.11,13.24.16h.28v.27c0,1.9-.08,3.79-.13,5.66Zm0,0-.14-5.65c-.05-1.86-.11-3.7-.13-5.54l.27.28c-4.41.05-8.82.16-13.24.16l-13.24.06.5-.5,0,11.19-.45-.44c2.18,0,4.36,0,6.55.05l6.58.12Z" style="fill:#ebebeb"></path><path d="M448.43,329.33l-13.13.28-6.66.11c-2.23,0-4.46,0-6.69.06h-.45v-.45l-.05-11.19v-.5H422l13.24.07c4.41,0,8.82.11,13.24.16h.27v.27c0,1.9-.09,3.79-.13,5.66Zm0,0-.15-5.65c0-1.86-.11-3.7-.13-5.54l.28.28c-4.42.05-8.83.16-13.24.16l-13.24.06.49-.5-.05,11.19-.44-.44c2.18,0,4.35,0,6.54.05l6.58.12Z" style="fill:#ebebeb"></path><path d="M92.83,315.22l-13.13.28-6.66.11c-2.22.05-4.46,0-6.69.06H65.9v-.45L65.85,304v-.5h.51l13.24.06c4.41,0,8.82.11,13.24.16h.27V304c0,1.9-.09,3.79-.13,5.66Zm0,0-.14-5.65c0-1.86-.12-3.7-.14-5.54l.28.28c-4.42.05-8.83.16-13.24.16l-13.24.06.5-.5-.06,11.19-.44-.44c2.18,0,4.35,0,6.54.05l6.58.12Z" style="fill:#ebebeb"></path><path d="M78.06,329.33l-13.13.28-6.66.11c-2.23,0-4.46,0-6.7.06h-.44v-.45l-.05-11.19v-.5h.5l13.24.07c4.42,0,8.83.11,13.25.16h.27v.27c0,1.9-.09,3.79-.13,5.66Zm0,0-.15-5.65c0-1.86-.11-3.7-.13-5.54l.28.28c-4.42.05-8.83.16-13.25.16l-13.24.06.5-.5,0,11.19-.45-.44c2.19,0,4.36,0,6.55.05l6.58.12Z" style="fill:#ebebeb"></path><path d="M315.33,155.74,302.2,156l-6.66.11c-2.22,0-4.46,0-6.69.05h-.45v-.45l0-11.19v-.5h.51l13.24.06c4.41,0,8.82.11,13.24.16h.27v.27c0,1.9-.09,3.78-.13,5.65Zm0,0-.15-5.66c0-1.86-.11-3.7-.13-5.53l.28.27c-4.42.05-8.83.16-13.24.16l-13.24.07.5-.5-.06,11.19-.44-.45c2.18,0,4.35,0,6.54.06l6.58.11Z" style="fill:#ebebeb"></path><path d="M300.55,169.85l-13.12.28-6.66.11c-2.23,0-4.46,0-6.7,0h-.44v-.45l-.06-11.19v-.51h.5l13.24.06c4.42,0,8.83.11,13.24.16h.28v.27c0,1.9-.09,3.78-.13,5.65Zm0,0-.14-5.66c0-1.86-.11-3.7-.13-5.53l.27.27c-4.41,0-8.82.16-13.24.16l-13.24.07.5-.5-.05,11.19-.45-.45c2.19,0,4.36,0,6.55.06l6.58.11Z" style="fill:#ebebeb"></path><path d="M330.1,169.85l-13.13.28-6.66.11c-2.22,0-4.46,0-6.69,0h-.45v-.45l-.05-11.19v-.51h.5l13.24.06c4.41,0,8.82.11,13.24.16h.27v.27c0,1.9-.08,3.78-.13,5.65Zm0,0-.14-5.66c0-1.86-.12-3.7-.13-5.53l.27.27c-4.42,0-8.83.16-13.24.16l-13.24.07.5-.5-.06,11.19-.44-.45c2.18,0,4.36,0,6.54.06l6.58.11Z" style="fill:#ebebeb"></path><path d="M432.12,73.38,419,73.66l-6.66.11c-2.23,0-4.47,0-6.7.06h-.44v-.45l-.06-11.19v-.5h.5l13.24.06c4.42,0,8.83.12,13.24.17h.28v.27c0,1.9-.09,3.79-.14,5.65Zm0,0L432,67.73c0-1.87-.11-3.71-.13-5.54l.27.27c-4.41,0-8.82.16-13.24.17l-13.24.06.5-.5-.05,11.19-.45-.45c2.18,0,4.36,0,6.55.06l6.58.11Z" style="fill:#ebebeb"></path><path d="M446.89,87.49l-13.12.28-6.66.11c-2.23.05-4.46,0-6.7.05H420v-.45l-.06-11.19v-.5h.5l13.24.06c4.42,0,8.83.12,13.24.17h.28v.27c0,1.9-.09,3.79-.13,5.65Zm0,0-.14-5.65c0-1.87-.11-3.71-.13-5.54l.27.27c-4.41.05-8.82.16-13.24.17l-13.24.06.5-.5-.05,11.19-.45-.45c2.19,0,4.36,0,6.55.06l6.58.11Z" style="fill:#ebebeb"></path><path d="M78.06,73.39l-13.13.28-6.66.11c-2.23,0-4.46,0-6.7.06h-.44v-.45L51.08,62.2v-.5h.5l13.24.07c4.42,0,8.83.11,13.25.16h.27v.27c0,1.9-.09,3.79-.13,5.66Zm0,0-.15-5.65c0-1.87-.11-3.71-.13-5.54l.28.27c-4.42.06-8.83.16-13.25.17l-13.24.06.5-.5,0,11.19L51.57,73c2.19,0,4.36,0,6.55,0l6.58.11Z" style="fill:#ebebeb"></path><rect x="58.84" y="102.69" width="53.71" height="65.14" style="fill:#ebebeb"></rect><rect x="64.98" y="108.64" width="41.43" height="53.25" style="fill:#fff"></rect><rect x="64.98" y="108.64" width="1.62" height="53.25" style="fill:#dbdbdb"></rect><rect x="112.55" y="102.69" width="1.62" height="65.14" style="fill:#dbdbdb"></rect><rect x="80.81" y="120.71" width="9.77" height="29.11" style="fill:#dbdbdb"></rect><path d="M99.22,142.9h-27V127.64H99.22Zm-26-1h25V128.64h-25Z" style="fill:#ebebeb"></path><rect x="101.12" y="183.53" width="53.71" height="65.14" style="fill:#ebebeb"></rect><rect x="107.26" y="189.48" width="41.43" height="53.25" style="fill:#fff"></rect><rect x="107.26" y="189.48" width="1.62" height="53.25" style="fill:#dbdbdb"></rect><rect x="154.82" y="183.53" width="1.62" height="65.14" style="fill:#dbdbdb"></rect><rect x="123.96" y="203.24" width="8.37" height="21.16" style="fill:#ebebeb"></rect><path d="M139.71,231.19H116.23V215.6h23.48Zm-22.48-1h21.48V216.6H117.23Z" style="fill:#dbdbdb"></path></g><g id="freepik--Shadow--inject-54"><ellipse cx="250" cy="448.8" rx="198.22" ry="19.42" style="fill:#ebebeb"></ellipse></g><g id="freepik--Balloons--inject-54"><rect x="415.56" y="280.98" width="0.76" height="80.1" style="fill:#263238"></rect><polygon points="439.35 249.54 417.62 361.08 416.85 361.08 438.61 249.39 439.35 249.54" style="fill:#263238"></polygon><polygon points="415.67 361.08 414.92 361.08 408.34 221.3 409.09 221.26 415.56 358.92 415.67 361.08" style="fill:#263238"></polygon><path d="M430.55,194.66a37.73,37.73,0,0,1-9.27,14.94c-5.71,5.87-11.58,9.06-11.53,9.69.18,1.78,1.91,4.49,1.78,5.08s-1.59,1.18-2.81,1.18-2.68-.59-2.82-1.18,1.6-3.3,1.77-5.08c.13-1.26-23.69-12.86-22.05-35.8.85-11.77,8.29-16.53,14.59-18.45a30.24,30.24,0,0,1,5.37-1.09,28.54,28.54,0,0,1,3.14-.19c3.35,0,21.72.82,23.08,19.73A30.08,30.08,0,0,1,430.55,194.66Z" style="fill:#D6DBF9"></path><path d="M409.75,219.29c.18,1.78,1.91,4.49,1.78,5.08s-1.59,1.18-2.81,1.18-2.68-.59-2.82-1.18,1.6-3.3,1.77-5.08c.13-1.26-23.69-12.86-22.05-35.8.85-11.77,8.29-16.53,14.59-18.45-5.59,4.79-12.48,14.2-7.5,29.52,4.61,14.15,18.15,18.34,28.57,15C415.57,215.47,409.7,218.66,409.75,219.29Z" style="opacity:0.1"></path><path d="M424.65,176.66a5.19,5.19,0,1,1-5.19-5.19A5.19,5.19,0,0,1,424.65,176.66Z" style="fill:#fff"></path><path d="M460.81,221.28a37.47,37.47,0,0,1-9.27,14.95c-5.7,5.87-11.58,9.06-11.52,9.68.18,1.78,1.91,4.49,1.77,5.08s-1.58,1.18-2.81,1.18-2.68-.59-2.81-1.18,1.59-3.3,1.77-5.08c.12-1.25-23.7-12.85-22.05-35.79.85-11.78,8.28-16.54,14.59-18.45a29.47,29.47,0,0,1,5.37-1.1,27.74,27.74,0,0,1,3.13-.18c3.36,0,21.73.81,23.09,19.73A30.2,30.2,0,0,1,460.81,221.28Z" style="fill:#c7c7c7"></path><path d="M440,245.91c.18,1.78,1.91,4.49,1.77,5.08s-1.58,1.18-2.81,1.18-2.68-.59-2.81-1.18,1.59-3.3,1.77-5.08c.12-1.25-23.7-12.85-22.05-35.79.85-11.78,8.28-16.54,14.59-18.45-5.6,4.78-12.49,14.19-7.5,29.52,4.6,14.14,18.14,18.34,28.56,15C445.84,242.1,440,245.29,440,245.91Z" style="fill:#a6a6a6"></path><path d="M455.65,203.35a5.19,5.19,0,1,1-5.19-5.19A5.19,5.19,0,0,1,455.65,203.35Z" style="fill:#fff"></path><path d="M437.76,252.75a37.85,37.85,0,0,1-9.41,15.05c-5.66,5.77-11.42,8.9-11.37,9.52.18,1.78,1.91,4.49,1.78,5.08s-1.59,1.18-2.81,1.18-2.68-.59-2.82-1.18,1.6-3.3,1.77-5.08c.12-1.25-23.7-12.85-22-35.79.86-11.87,8.4-16.61,14.73-18.5a31,31,0,0,1,5.34-1.07c1.36-.14,2.43-.17,3-.17,3.35,0,21.72.82,23.08,19.74A30.1,30.1,0,0,1,437.76,252.75Z" style="fill:#37474f"></path><path d="M392.85,241.53c.86-11.87,8.4-16.61,14.73-18.5-5.63,4.72-12.77,14.18-7.72,29.71,4.59,14.11,18.08,18.32,28.49,15.06-5.66,5.77-11.42,8.9-11.37,9.52.18,1.78,1.91,4.49,1.78,5.08s-1.59,1.18-2.81,1.18-2.68-.59-2.82-1.18,1.6-3.3,1.77-5.08C415,276.07,391.2,264.47,392.85,241.53Z" style="fill:#263238"></path><path d="M432,234.59a5.19,5.19,0,1,1-5.19-5.19A5.19,5.19,0,0,1,432,234.59Z" style="fill:#fff"></path><rect x="409.23" y="342.49" width="14.28" height="18.66" style="fill:#D6DBF9"></rect><rect x="67.87" y="280.98" width="0.76" height="80.1" style="fill:#263238"></rect><polygon points="91.65 249.54 69.92 361.08 69.15 361.08 90.92 249.39 91.65 249.54" style="fill:#263238"></polygon><polygon points="67.97 361.08 67.22 361.08 60.64 221.3 61.4 221.26 67.87 358.92 67.97 361.08" style="fill:#263238"></polygon><path d="M82.85,194.66a37.51,37.51,0,0,1-9.27,14.94c-5.7,5.87-11.58,9.06-11.52,9.69.18,1.78,1.91,4.49,1.77,5.08s-1.58,1.18-2.81,1.18-2.67-.59-2.81-1.18,1.59-3.3,1.77-5.08c.12-1.26-23.7-12.86-22-35.8C38.78,171.72,46.21,167,52.52,165A30.24,30.24,0,0,1,57.89,164a28.39,28.39,0,0,1,3.13-.19c3.36,0,21.73.82,23.09,19.73A30.28,30.28,0,0,1,82.85,194.66Z" style="fill:#c7c7c7"></path><path d="M62.06,219.29c.18,1.78,1.91,4.49,1.77,5.08s-1.58,1.18-2.81,1.18-2.67-.59-2.81-1.18,1.59-3.3,1.77-5.08c.12-1.26-23.7-12.86-22-35.8C38.78,171.72,46.21,167,52.52,165c-5.6,4.79-12.49,14.2-7.5,29.52,4.6,14.15,18.14,18.34,28.56,15C67.88,215.47,62,218.66,62.06,219.29Z" style="fill:#a6a6a6"></path><path d="M77,176.66a5.19,5.19,0,1,1-5.19-5.19A5.19,5.19,0,0,1,77,176.66Z" style="fill:#fff"></path><path d="M113.12,221.28a37.59,37.59,0,0,1-9.27,14.95c-5.71,5.87-11.58,9.06-11.52,9.68.17,1.78,1.91,4.49,1.77,5.08s-1.59,1.18-2.81,1.18-2.68-.59-2.82-1.18,1.6-3.3,1.77-5.08c.13-1.25-23.69-12.85-22-35.79.84-11.78,8.28-16.54,14.58-18.45a29.64,29.64,0,0,1,5.37-1.1,28,28,0,0,1,3.14-.18c3.35,0,21.73.81,23.09,19.73A30.2,30.2,0,0,1,113.12,221.28Z" style="fill:#37474f"></path><path d="M92.33,245.91c.17,1.78,1.91,4.49,1.77,5.08s-1.59,1.18-2.81,1.18-2.68-.59-2.82-1.18,1.6-3.3,1.77-5.08c.13-1.25-23.69-12.85-22-35.79.84-11.78,8.28-16.54,14.58-18.45-5.59,4.78-12.48,14.19-7.5,29.52,4.61,14.14,18.15,18.34,28.57,15C98.14,242.1,92.27,245.29,92.33,245.91Z" style="fill:#263238"></path><path d="M108,203.35a5.2,5.2,0,1,1-5.19-5.19A5.19,5.19,0,0,1,108,203.35Z" style="fill:#fff"></path><path d="M90.06,252.75a37.63,37.63,0,0,1-9.41,15.05c-5.66,5.77-11.42,8.9-11.36,9.52.17,1.78,1.91,4.49,1.77,5.08s-1.58,1.18-2.81,1.18-2.68-.59-2.81-1.18,1.59-3.3,1.77-5.08c.12-1.25-23.7-12.85-22-35.79.85-11.87,8.4-16.61,14.73-18.5A31,31,0,0,1,65.23,222c1.36-.14,2.43-.17,3-.17,3.36,0,21.73.82,23.09,19.74A29.9,29.9,0,0,1,90.06,252.75Z" style="fill:#D6DBF9"></path><path d="M45.16,241.53c.85-11.87,8.4-16.61,14.73-18.5-5.63,4.72-12.77,14.18-7.72,29.71,4.59,14.11,18.07,18.32,28.48,15.06-5.66,5.77-11.42,8.9-11.36,9.52.17,1.78,1.91,4.49,1.77,5.08s-1.58,1.18-2.81,1.18-2.68-.59-2.81-1.18,1.59-3.3,1.77-5.08C67.33,276.07,43.51,264.47,45.16,241.53Z" style="opacity:0.1"></path><path d="M84.28,234.59a5.19,5.19,0,1,1-5.19-5.19A5.2,5.2,0,0,1,84.28,234.59Z" style="fill:#fff"></path><rect x="61.54" y="342.49" width="14.28" height="18.66" style="fill:#D6DBF9"></rect></g><g id="freepik--Floor--inject-54"><polygon points="43.94 361.07 95.45 360.83 146.97 360.74 250 360.57 353.03 360.74 404.55 360.83 456.06 361.07 404.55 361.32 353.03 361.4 250 361.57 146.97 361.4 95.45 361.31 43.94 361.07" style="fill:#263238"></polygon></g><g id="freepik--Ribbon--inject-54"><path d="M417.14,94.38a541,541,0,0,1-334.28,0Q93,63.15,103.15,31.92a475.24,475.24,0,0,0,293.7,0Q407,63.15,417.14,94.38Z" style="fill:#D6DBF9"></path><path d="M154.73,65.05l5.12,1q.79,4.78,1.63,9.58,2.46-4.2,4.85-8.43,2.58.45,5.18.87-3.45,5.79-7,11.56,1.13,4.67,2.32,9.33,6-9.9,11.61-19.91,3,.45,6.1.85-7.71,12.89-16.05,25.54c-1.66-.26-3.31-.53-5-.81q-1.68-6.15-3.22-12.31-3.58,5.25-7.29,10.44c-1.65-.31-3.29-.63-4.94-1Q144.64,77,141.9,62.27q3,.67,5.95,1.3,1.85,11.35,4.06,22.71,2.7-4,5.32-8Q155.93,71.68,154.73,65.05Z" style="fill:#fff"></path><path d="M205.61,95.22c-.14,1.56-.27,3.12-.41,4.69Q194.58,99,184,97.64q1.75-13.68,3.49-27.37,9.86,1.26,19.73,2.11c-.14,1.56-.27,3.13-.41,4.69q-7.12-.63-14.24-1.45c-.26,2.2-.51,4.4-.77,6.6q6.24.73,12.47,1.29l-.39,4.34q-6.3-.57-12.58-1.3c-.27,2.38-.55,4.76-.82,7.14Q198,94.56,205.61,95.22Z" style="fill:#fff"></path><path d="M209.86,100.29q1.06-13.77,2.12-27.52c1.88.15,3.76.28,5.64.41L216.12,96q7.74.51,15.49.78c-.06,1.57-.11,3.13-.17,4.7Q220.64,101.13,209.86,100.29Z" style="fill:#fff"></path><path d="M231.77,87.51a13.45,13.45,0,0,1,1.16-5,13.78,13.78,0,0,1,3-4.32,14.74,14.74,0,0,1,4.61-3,15.05,15.05,0,0,1,6.08-1.13,14.17,14.17,0,0,1,6.94,1.67A11.16,11.16,0,0,1,258,80c-1.45,1-2.9,1.93-4.37,2.89a7,7,0,0,0-1.42-2,7.24,7.24,0,0,0-1.78-1.26,8.86,8.86,0,0,0-2-.69,10.94,10.94,0,0,0-2-.22,8.22,8.22,0,0,0-3.75.78A8,8,0,0,0,240,81.66a8.89,8.89,0,0,0-1.67,2.92,10.52,10.52,0,0,0-.63,3.27,9.86,9.86,0,0,0,.56,3.53,8.82,8.82,0,0,0,4.52,5.12,8.28,8.28,0,0,0,3.61.81,10.8,10.8,0,0,0,2.14-.22,8.74,8.74,0,0,0,2.12-.74A7.59,7.59,0,0,0,252.45,95a5.86,5.86,0,0,0,1.36-1.93c1.6.83,3.22,1.65,4.84,2.47a8.3,8.3,0,0,1-2,2.77,13.05,13.05,0,0,1-3,2,16.65,16.65,0,0,1-3.64,1.26,17.41,17.41,0,0,1-3.81.41,14,14,0,0,1-6-1.32,15.06,15.06,0,0,1-4.59-3.36,14.43,14.43,0,0,1-2.89-4.63A13.06,13.06,0,0,1,231.77,87.51Z" style="fill:#fff"></path><path d="M275.56,101.4a14.82,14.82,0,0,1-6.15-.92,14.36,14.36,0,0,1-4.79-3,13.85,13.85,0,0,1-3.13-4.42,13.22,13.22,0,0,1-.17-10.45,14.73,14.73,0,0,1,13-9.18,13.76,13.76,0,0,1,5.82.91A14.82,14.82,0,0,1,288,81.54a13.38,13.38,0,0,1,1.44,5,13,13,0,0,1-.69,5.33A13.92,13.92,0,0,1,286,96.55a14.56,14.56,0,0,1-4.52,3.38A15.29,15.29,0,0,1,275.56,101.4Zm-9.35-13.62a10.3,10.3,0,0,0,.71,3.43,9,9,0,0,0,1.82,2.9,8.33,8.33,0,0,0,6.63,2.55,8.22,8.22,0,0,0,6.39-3.27,9,9,0,0,0,1.51-3.08,10.26,10.26,0,0,0,.35-3.39,10,10,0,0,0-.84-3.41,9.59,9.59,0,0,0-1.89-2.84,8.26,8.26,0,0,0-2.81-1.88,8.5,8.5,0,0,0-3.61-.57,8.28,8.28,0,0,0-3.64,1,8,8,0,0,0-2.61,2.2,9.35,9.35,0,0,0-1.55,3A10.53,10.53,0,0,0,266.21,87.78Z" style="fill:#fff"></path><path d="M320,97.12,317.55,79q-2.88,7.26-6,14.48l-3.19.37q-4.67-6.31-9.14-12.71.9,9.09,1.79,18.18c-2,.19-4,.38-6,.55q-1.18-13.74-2.38-27.49c2-.18,4-.36,6-.56q5.06,7.38,10.37,14.67,3.56-8.31,6.81-16.68,3-.41,6-.84l4,27.3C324,96.57,322,96.85,320,97.12Z" style="fill:#fff"></path><path d="M352.37,86.9l.93,4.61q-10.49,2.11-21.05,3.8-2.16-13.62-4.34-27.25,9.81-1.56,19.57-3.53l.93,4.61q-7.05,1.42-14.12,2.63c.38,2.18.75,4.37,1.12,6.55q6.19-1.06,12.37-2.28l.84,4.27q-6.22,1.23-12.47,2.3c.4,2.36.81,4.72,1.21,7.09Q344.89,88.41,352.37,86.9Z" style="fill:#fff"></path><path d="M356.29,80.29l-3.63-17.11c1.79-.38,3.59-.77,5.38-1.17q1.92,8.52,3.83,17.06C360,79.49,358.15,79.89,356.29,80.29Zm2.16,10.15c-.41-1.91-.82-3.83-1.22-5.74q2.82-.6,5.62-1.23l1.29,5.73C362.24,89.62,360.35,90,358.45,90.44Z" style="fill:#fff"></path><g style="opacity:0.1"><path d="M106.74,40a11.22,11.22,0,0,1-.33,3.78,32.16,32.16,0,0,1-1.1,3.62A34,34,0,0,1,102,54.16c.66-2.44,1.53-4.78,2.38-7.12l1.28-3.49A26.63,26.63,0,0,0,106.74,40Z"></path><path d="M107.74,40.82a12,12,0,0,1,1.23,3,20.65,20.65,0,0,1,.61,3.21,18.89,18.89,0,0,1-.41,6.49c-.14-1.09-.2-2.15-.29-3.22s-.19-2.11-.29-3.16C108.37,45.05,108.09,43,107.74,40.82Z"></path><path d="M110.11,40a23.8,23.8,0,0,0,2.46,2.27,20.48,20.48,0,0,0,2.7,1.85,21.12,21.12,0,0,0,3,1.43c1,.43,2.09.73,3.18,1.1a11,11,0,0,1-3.42-.36A12.54,12.54,0,0,1,112,42.83,9.11,9.11,0,0,1,110.11,40Z"></path></g><g style="opacity:0.1"><path d="M394.08,40a26.63,26.63,0,0,0,1.08,3.56L396.45,47c.85,2.34,1.71,4.68,2.37,7.12a35.08,35.08,0,0,1-3.31-6.77,30.17,30.17,0,0,1-1.09-3.62A11,11,0,0,1,394.08,40Z"></path><path d="M393.09,40.82c-.35,2.14-.63,4.23-.85,6.34-.11,1.05-.21,2.1-.29,3.16s-.16,2.13-.3,3.22a18.89,18.89,0,0,1-.41-6.49,20.65,20.65,0,0,1,.61-3.21A12,12,0,0,1,393.09,40.82Z"></path><path d="M390.72,40a9.31,9.31,0,0,1-1.94,2.84,12.54,12.54,0,0,1-5.94,3.45,10.92,10.92,0,0,1-3.41.36c1.09-.37,2.15-.67,3.17-1.1a22.24,22.24,0,0,0,5.66-3.28A23.8,23.8,0,0,0,390.72,40Z"></path></g><path d="M110.11,40a2.37,2.37,0,1,1-2.37-2.37A2.37,2.37,0,0,1,110.11,40Z" style="fill:#263238"></path><path d="M394.63,40a2.37,2.37,0,1,1-2.37-2.37A2.37,2.37,0,0,1,394.63,40Z" style="fill:#263238"></path></g><g id="freepik--Confetti--inject-54"><path d="M190,159.25a2.49,2.49,0,0,1-2.08,2.82,2.45,2.45,0,0,1-2.73-2.16,2.51,2.51,0,0,1,2.09-2.82A2.45,2.45,0,0,1,190,159.25Z" style="fill:#263238"></path><path d="M381.12,169.64a2.5,2.5,0,0,1-2.09,2.82,2.44,2.44,0,0,1-2.72-2.16,2.5,2.5,0,0,1,2.08-2.82A2.46,2.46,0,0,1,381.12,169.64Z" style="fill:#263238"></path><path d="M326.2,150.07a1.25,1.25,0,0,1-1.05,1.4,1.21,1.21,0,0,1-1.36-1.07,1.25,1.25,0,0,1,1-1.41A1.22,1.22,0,0,1,326.2,150.07Z" style="fill:#D6DBF9"></path><path d="M174,150.07a1.24,1.24,0,0,1-1,1.4,1.21,1.21,0,0,1-1.36-1.07,1.25,1.25,0,0,1,1-1.41A1.22,1.22,0,0,1,174,150.07Z" style="fill:#D6DBF9"></path><path d="M355.57,70.93a1.25,1.25,0,0,1-1,1.4,1.2,1.2,0,0,1-1.36-1.07,1.24,1.24,0,0,1,1-1.41A1.22,1.22,0,0,1,355.57,70.93Z" style="fill:#263238"></path><path d="M291.5,229.26a1.24,1.24,0,0,1-1,1.41,1.22,1.22,0,0,1-1.36-1.08,1.25,1.25,0,0,1,1-1.4A1.2,1.2,0,0,1,291.5,229.26Z" style="fill:#263238"></path><path d="M271.32,52.74a1.25,1.25,0,0,1-1,1.41,1.22,1.22,0,0,1-1.36-1.08,1.25,1.25,0,0,1,1-1.41A1.22,1.22,0,0,1,271.32,52.74Z" style="fill:#263238"></path><path d="M135.87,180.93a1.25,1.25,0,0,1-1,1.41,1.22,1.22,0,0,1-1.36-1.08,1.25,1.25,0,0,1,1-1.41A1.22,1.22,0,0,1,135.87,180.93Z" style="fill:#D6DBF9"></path><path d="M342.67,280a1.24,1.24,0,0,1-1,1.41,1.22,1.22,0,0,1-1.36-1.08,1.25,1.25,0,0,1,1.05-1.41A1.21,1.21,0,0,1,342.67,280Z" style="fill:#455a64"></path><path d="M178.18,258.37a1.25,1.25,0,0,1-1,1.41,1.21,1.21,0,0,1-1.36-1.08,1.24,1.24,0,0,1,1-1.41A1.22,1.22,0,0,1,178.18,258.37Z" style="fill:#D6DBF9"></path><path d="M195.42,210.21a2.49,2.49,0,0,1-2.08,2.82,2.44,2.44,0,0,1-2.73-2.16,2.49,2.49,0,0,1,2.09-2.81A2.43,2.43,0,0,1,195.42,210.21Z" style="fill:#D6DBF9"></path><path d="M216,80.41A2.51,2.51,0,0,1,214,83.23a2.45,2.45,0,0,1-2.72-2.16,2.49,2.49,0,0,1,2.08-2.82A2.45,2.45,0,0,1,216,80.41Z" style="fill:#455a64"></path><path d="M183,234.77a2.5,2.5,0,0,1-2.09,2.82,2.43,2.43,0,0,1-2.72-2.15,2.49,2.49,0,0,1,2.08-2.82A2.44,2.44,0,0,1,183,234.77Z" style="fill:#455a64"></path><path d="M306.23,61.68a2.48,2.48,0,0,1-2.08,2.81,2.43,2.43,0,0,1-2.72-2.15,2.49,2.49,0,0,1,2.08-2.82A2.43,2.43,0,0,1,306.23,61.68Z" style="fill:#263238"></path><path d="M304.25,143.18l3.44-1.19s-2.35-1.25-2.34-5.14,3.21-5.42,1.82-8.93L303.35,129a7.57,7.57,0,0,1,.17,6C302.51,137.18,301.6,139.83,304.25,143.18Z" style="fill:#263238"></path><path d="M220.1,158.36,216.71,157s1.06,2.5-1.31,5.51-5.79,2.11-6.86,5.75l3.62,1.67a7.33,7.33,0,0,1,3.49-4.73C217.8,164.16,220.13,162.7,220.1,158.36Z" style="fill:#455a64"></path><path d="M141.72,224.89l-3.38-1.32s1,2.5-1.32,5.51-5.79,2.11-6.85,5.75l3.61,1.67a7.33,7.33,0,0,1,3.49-4.73C139.42,230.68,141.75,229.22,141.72,224.89Z" style="fill:#263238"></path><path d="M401.66,218l-3.38-1.31s1.05,2.49-1.32,5.51-5.79,2.11-6.85,5.74l3.61,1.68a7.37,7.37,0,0,1,3.49-4.74C399.36,223.76,401.69,222.3,401.66,218Z" style="fill:#D6DBF9"></path><path d="M155.77,124.74l.49-3.71s-2.12,1.62-5.48-.1-3.27-5.39-6.93-5.66l-.78,4a7,7,0,0,1,5.24,2.48C149.8,123.7,151.69,125.73,155.77,124.74Z" style="fill:#263238"></path><path d="M134.7,274.36l.49-3.71s-2.12,1.62-5.48-.1-3.27-5.38-6.93-5.66l-.78,4a7,7,0,0,1,5.24,2.48C128.73,273.32,130.62,275.35,134.7,274.36Z" style="fill:#D6DBF9"></path><path d="M256.93,264.39l.49-3.71s-2.12,1.62-5.48-.1-3.27-5.38-6.93-5.66l-.78,4a7,7,0,0,1,5.23,2.48C251,263.35,252.85,265.38,256.93,264.39Z" style="fill:#455a64"></path><path d="M402.8,134.15l.49-3.71s-2.11,1.62-5.48-.11-3.27-5.38-6.93-5.65l-.77,4a7,7,0,0,1,5.23,2.48C396.83,133.11,398.72,135.13,402.8,134.15Z" style="fill:#D6DBF9"></path><path d="M185.72,278.68l.69,3.68s1.5-2.24,5.22-1.72,4.76,4,8.31,3.05l-.51-4.07a6.87,6.87,0,0,1-5.72-.6C191.7,277.68,189.28,276.39,185.72,278.68Z" style="fill:#455a64"></path><path d="M246.28,202l-3.82-2.14s-3.08,4.82.63,7.25C243.09,207.07,242.32,203.94,246.28,202Z" style="fill:#D6DBF9"></path><path d="M243.19,212.94l4-1.55s.23-3.56-4.11-4.32C243.09,207.07,245.81,210.29,243.19,212.94Z" style="fill:#D6DBF9"></path><path d="M139.6,51.6l-3.81-2.14s-3.09,4.82.63,7.25C136.42,56.71,135.65,53.58,139.6,51.6Z" style="fill:#455a64"></path><path d="M136.52,62.58l4-1.55s.23-3.56-4.11-4.32C136.42,56.71,139.14,59.93,136.52,62.58Z" style="fill:#455a64"></path><path d="M271.88,141.43a2.5,2.5,0,0,1,2.09-2.82,2.44,2.44,0,0,1,2.72,2.16,2.51,2.51,0,0,1-2.09,2.82A2.45,2.45,0,0,1,271.88,141.43Z" style="fill:#263238"></path><path d="M350.05,189.85a2.49,2.49,0,0,1,2.09-2.81,2.43,2.43,0,0,1,2.72,2.15,2.49,2.49,0,0,1-2.08,2.82A2.45,2.45,0,0,1,350.05,189.85Z" style="fill:#D6DBF9"></path><path d="M299,277.76a2.5,2.5,0,0,1,2.09-2.82,2.44,2.44,0,0,1,2.72,2.16,2.5,2.5,0,0,1-2.08,2.82A2.46,2.46,0,0,1,299,277.76Z" style="fill:#D6DBF9"></path><path d="M96.72,236.67a1.24,1.24,0,0,1,1-1.41,1.22,1.22,0,0,1,1.36,1.08,1.26,1.26,0,0,1-1.05,1.41A1.21,1.21,0,0,1,96.72,236.67Z" style="fill:#D6DBF9"></path><path d="M292.9,209.67a1.25,1.25,0,0,1,1-1.41,1.22,1.22,0,0,1,1.36,1.08,1.25,1.25,0,0,1-1,1.41A1.23,1.23,0,0,1,292.9,209.67Z" style="fill:#D6DBF9"></path><path d="M260.11,109.19a1.25,1.25,0,0,1,1-1.41,1.22,1.22,0,0,1,1.36,1.08,1.25,1.25,0,0,1-1,1.41A1.22,1.22,0,0,1,260.11,109.19Z" style="fill:#37474f"></path><path d="M351.6,120.47a2.5,2.5,0,0,1,2.09-2.82,2.44,2.44,0,0,1,2.72,2.16,2.49,2.49,0,0,1-2.09,2.81A2.44,2.44,0,0,1,351.6,120.47Z" style="fill:#D6DBF9"></path><path d="M102.34,210.25a2.49,2.49,0,0,1,2.08-2.81,2.44,2.44,0,0,1,2.73,2.15,2.5,2.5,0,0,1-2.09,2.82A2.43,2.43,0,0,1,102.34,210.25Z" style="fill:#455a64"></path><path d="M203.7,121.66l-5.78,1.7s-2.75-7.48,3-9.59C200.89,113.77,198.94,117.75,203.7,121.66Z" style="fill:#455a64"></path><path d="M202.75,105.88l5,3.34s-.73,4.88-6.82,4.55C200.89,113.77,205.52,110.27,202.75,105.88Z" style="fill:#455a64"></path><path d="M388.47,265.23l-5.77,1.7s-2.75-7.48,3-9.59C385.67,257.34,383.72,261.32,388.47,265.23Z" style="fill:#455a64"></path><path d="M387.53,249.45l5,3.34s-.73,4.88-6.82,4.55C385.67,257.34,390.29,253.84,387.53,249.45Z" style="fill:#455a64"></path><path d="M349.59,214.93l-.78-6.17s7.54-1.73,8.72,4.44C357.53,213.2,354,210.63,349.59,214.93Z" style="fill:#263238"></path><path d="M364.81,216.25l-3.92,4.6s-4.56-1.46-3.36-7.65C357.53,213.2,360.21,218.45,364.81,216.25Z" style="fill:#263238"></path><path d="M209.63,256.84l-5.78,1.69s-2.75-7.47,3-9.58C206.83,249,204.88,252.93,209.63,256.84Z" style="fill:#263238"></path><path d="M208.69,241.05l5,3.35s-.73,4.88-6.82,4.55C206.83,249,211.45,245.45,208.69,241.05Z" style="fill:#263238"></path><path d="M313.28,104.32l3.81,2.15s3.09-4.82-.62-7.25C316.47,99.22,317.23,102.35,313.28,104.32Z" style="fill:#455a64"></path><path d="M316.37,93.35l-4,1.54s-.24,3.56,4.11,4.33C316.47,99.22,313.74,96,316.37,93.35Z" style="fill:#455a64"></path><path d="M306.43,228.23l.63,4.44s5.58-.34,5.22-4.87C312.28,227.8,310.33,230.31,306.43,228.23Z" style="fill:#D6DBF9"></path><path d="M316.76,224.19l-3.6-2.39s-2.89,1.94-.88,6C312.28,227.8,313.14,223.6,316.76,224.19Z" style="fill:#D6DBF9"></path></g></svg>